<?xml version="1.0" standalone="no"?>
<!DOCTYPE svg PUBLIC "-//W3C//DTD SVG 20010904//EN"
 "http://www.w3.org/TR/2001/REC-SVG-20010904/DTD/svg10.dtd">
<svg version="1.0" xmlns="http://www.w3.org/2000/svg"
 width="500.000000pt" height="500.000000pt" viewBox="0 0 500.000000 500.000000"
 preserveAspectRatio="xMidYMid meet">

<g transform="translate(0.000000,500.000000) scale(0.100000,-0.100000)"
fill="#000000" stroke="none">
<path d="M3713 2829 c-212 -41 -332 -252 -282 -491 17 -81 44 -130 120 -217
81 -93 139 -127 244 -140 98 -12 184 1 260 38 101 50 155 133 177 274 23 154
-21 280 -144 407 -80 82 -131 112 -223 129 -66 12 -92 12 -152 0z m193 -233
c17 -13 19 -27 19 -143 0 -108 -3 -134 -20 -167 -26 -51 -66 -80 -110 -80 -56
0 -60 10 -60 157 0 112 3 138 20 172 31 62 107 93 151 61z"/>
<path d="M780 2445 l0 -375 30 0 c28 0 30 -2 30 -40 l0 -40 120 0 120 0 0 150
0 150 125 0 125 0 0 74 0 75 -37 3 c-36 3 -38 5 -41 41 l-3 37 -85 0 -85 0 3
43 3 42 138 3 137 3 0 69 0 70 -35 0 c-33 0 -35 2 -35 35 l0 35 -255 0 -255 0
0 -375z"/>
<path d="M1420 2445 l0 -375 30 0 c28 0 30 -2 30 -40 l0 -40 120 0 120 0 0
380 0 380 -35 0 c-33 0 -35 2 -35 35 l0 35 -115 0 -115 0 0 -375z"/>
<path d="M1840 2445 l0 -375 35 0 c34 0 35 -1 35 -40 l0 -40 245 0 245 0 0 75
0 75 -35 0 c-34 0 -35 1 -35 40 l0 40 -90 0 -90 0 -2 263 -3 262 -37 3 c-36 3
-38 5 -38 38 l0 34 -115 0 -115 0 0 -375z"/>
<path d="M2450 2445 l0 -375 35 0 c34 0 35 -1 35 -40 l0 -40 85 0 85 0 2 188
3 187 54 -88 c29 -49 59 -91 67 -94 8 -3 24 -23 36 -44 16 -30 28 -39 48 -39
22 0 33 13 75 86 l50 86 3 -101 3 -101 34 0 c34 0 35 -1 35 -40 l0 -40 125 0
125 0 -2 378 -3 377 -37 3 c-36 3 -38 5 -38 38 l0 35 -112 -3 -112 -3 -84
-130 c-46 -71 -86 -131 -90 -132 -4 -1 -29 34 -57 80 -27 45 -69 101 -92 125
-24 24 -43 47 -43 53 0 5 -50 9 -115 9 l-115 0 0 -375z"/>
</g>
</svg>
