<?xml version="1.0" standalone="no"?>
<!DOCTYPE svg PUBLIC "-//W3C//DTD SVG 20010904//EN"
 "http://www.w3.org/TR/2001/REC-SVG-20010904/DTD/svg10.dtd">
<svg version="1.0" xmlns="http://www.w3.org/2000/svg"
 width="1280.000000pt" height="720.000000pt" viewBox="0 0 1280.000000 720.000000"
 preserveAspectRatio="xMidYMid meet">

<g transform="translate(0.000000,720.000000) scale(0.100000,-0.100000)"
fill="#000000" stroke="none">
<path d="M0 6200 c0 -988 0 -1000 20 -1000 12 0 17 -5 14 -14 -6 -15 29 -28
52 -19 8 3 21 18 30 34 16 32 35 37 54 14 9 -11 9 -15 1 -15 -7 0 -3 -9 7 -21
14 -15 26 -18 45 -14 19 5 35 0 57 -15 18 -13 51 -24 76 -26 25 -2 50 -7 57
-11 7 -4 22 -6 35 -4 18 2 23 -2 22 -16 -4 -31 -1 -34 19 -24 14 8 22 7 32 -5
7 -8 18 -13 25 -10 20 8 26 -25 7 -39 -15 -11 -15 -15 -3 -30 8 -10 13 -30 12
-46 -2 -16 1 -29 7 -29 6 0 11 -10 11 -22 2 -130 -2 -281 -10 -363 -27 -283
-33 -486 -27 -905 5 -305 11 -469 22 -549 18 -131 8 -291 -19 -333 -10 -15
-38 -32 -70 -43 -55 -19 -80 -50 -54 -67 9 -5 7 -13 -7 -28 -16 -18 -27 -21
-57 -16 -21 4 -38 2 -38 -2 0 -5 -19 -16 -41 -25 -34 -14 -40 -19 -30 -31 14
-16 -5 -27 -47 -25 -26 1 -26 1 -4 7 28 8 25 28 -3 26 -11 -1 -47 -9 -80 -17
-33 -9 -72 -18 -87 -21 -16 -4 -28 -13 -28 -22 0 -10 6 -14 15 -10 8 3 15 1
15 -5 0 -5 -7 -12 -15 -15 -13 -5 -15 -151 -15 -1225 l0 -1219 2395 0 2394 0
7 36 c4 25 9 32 15 23 4 -8 6 -24 2 -36 -4 -17 -1 -23 11 -23 9 0 16 7 16 15
0 19 24 19 40 0 11 -13 169 -15 1311 -15 l1299 0 -15 24 c-10 15 -12 26 -6 30
5 4 60 11 121 17 96 9 115 8 135 -5 26 -17 85 -22 85 -7 0 4 11 6 24 4 16 -3
51 8 97 32 50 26 75 33 82 26 8 -8 3 -19 -15 -38 -24 -26 -48 -65 -48 -77 0
-3 1091 -6 2425 -6 l2425 0 0 3600 0 3600 -1165 0 -1165 0 17 -27 c24 -38 128
-181 157 -218 14 -16 23 -31 22 -32 -1 -2 -21 -5 -43 -8 -40 -5 -72 12 -60 32
3 5 -3 10 -14 10 -22 2 -26 -15 -4 -23 22 -9 18 -24 -5 -24 -11 0 -20 5 -20
11 0 5 -5 7 -12 3 -21 -13 22 -35 44 -23 37 20 30 0 -17 -45 -44 -43 -51 -66
-19 -66 7 0 19 9 26 20 7 11 18 20 24 20 7 0 14 7 18 15 6 16 36 21 36 6 0 -5
-12 -17 -27 -27 -38 -24 -57 -44 -49 -51 3 -3 14 1 24 11 12 10 26 14 38 10
10 -4 16 -4 12 1 -6 6 17 39 24 34 11 -8 48 26 48 43 0 16 11 8 46 -38 25 -32
58 -79 72 -104 14 -25 35 -55 46 -68 11 -13 34 -47 51 -77 16 -30 55 -96 86
-147 31 -51 74 -129 94 -173 21 -44 44 -91 52 -105 30 -52 94 -193 90 -197 -3
-2 -40 1 -83 8 -44 6 -101 13 -129 15 -90 8 -89 7 -178 141 -46 71 -128 193
-180 273 -158 239 -186 280 -270 398 -49 69 -87 112 -97 112 -10 0 -28 -8 -41
-18 l-22 -19 36 -48 c42 -54 46 -75 17 -75 -11 0 -20 6 -20 13 0 8 -6 14 -12
14 -16 0 -20 -47 -4 -47 6 0 3 -5 -8 -11 -15 -10 -23 -6 -47 22 -16 19 -29 38
-29 42 0 5 12 24 26 43 15 19 23 34 19 34 -4 0 -32 -20 -64 -45 -31 -25 -60
-45 -64 -45 -18 0 -157 -93 -171 -115 -18 -27 -42 -34 -32 -10 6 17 -19 21
-29 5 -4 -7 -11 -8 -18 -1 -13 10 -77 -12 -77 -27 0 -11 -107 -95 -148 -116
-41 -21 -93 -66 -87 -75 2 -5 -5 -18 -16 -30 -20 -22 -20 -51 1 -51 17 0 11
-39 -8 -49 -13 -7 -31 -1 -73 25 -60 36 -106 48 -101 26 2 -9 -7 -12 -30 -10
-28 3 -37 11 -58 54 -14 28 -35 64 -47 81 -12 16 -27 52 -34 79 -6 27 -16 53
-20 59 -18 19 -8 27 16 11 39 -25 32 3 -10 44 -19 19 -35 37 -35 41 0 4 19 7
43 7 69 -1 72 1 91 33 10 16 33 38 52 46 19 9 34 22 34 29 0 7 14 15 30 19 17
4 30 13 30 21 0 8 8 14 19 14 10 0 33 16 52 36 19 19 57 50 85 69 72 46 94 67
94 86 0 23 10 30 31 19 13 -8 18 -6 21 7 2 12 11 4 31 -25 27 -42 56 -58 42
-24 -14 34 -18 92 -7 92 12 0 52 39 52 51 0 4 -69 8 -152 8 l-153 1 -55 -40
c-30 -22 -71 -47 -90 -56 -40 -18 -71 -44 -65 -53 2 -4 -6 -8 -18 -8 -25 -2
-57 -37 -57 -63 0 -10 -7 -20 -15 -24 -8 -3 -12 -12 -9 -20 3 -8 -10 -34 -28
-59 -18 -24 -41 -58 -50 -75 -23 -43 -65 -53 -89 -21 -21 26 -49 78 -49 89 0
12 54 44 72 43 9 -1 20 7 23 18 4 10 12 19 19 19 6 0 37 24 67 53 30 29 74 67
99 84 25 17 55 50 68 72 l23 41 -761 0 c-746 0 -761 0 -750 -19 5 -11 13 -21
17 -23 5 -1 28 -28 53 -58 24 -30 68 -80 96 -110 29 -30 68 -73 88 -95 56 -61
90 -95 99 -95 4 0 7 -6 7 -14 0 -16 18 -31 27 -23 2 3 -16 44 -41 91 -25 47
-46 90 -46 95 0 5 -13 24 -29 42 -16 17 -32 41 -35 53 -4 16 2 13 25 -14 17
-19 45 -51 63 -70 17 -19 45 -53 61 -75 17 -22 38 -49 48 -60 10 -11 44 -58
75 -105 31 -47 79 -114 108 -150 77 -99 197 -271 224 -323 12 -24 12 -30 1
-37 -10 -5 -12 -21 -8 -50 7 -58 23 -72 47 -42 10 12 21 22 24 22 10 0 7 -68
-4 -75 -13 -8 -13 -52 1 -60 17 -11 19 -3 24 76 5 85 24 159 41 159 25 0 95
-148 109 -230 4 -23 13 -44 21 -47 7 -2 16 -14 20 -25 3 -10 18 -34 33 -51 16
-18 48 -69 72 -113 42 -78 43 -84 33 -123 -6 -23 -8 -43 -4 -46 3 -2 21 5 39
16 18 11 36 18 39 14 11 -11 -165 -170 -247 -222 -86 -54 -111 -63 -111 -40 0
8 -27 35 -60 60 -33 26 -70 62 -82 81 -13 19 -30 39 -39 43 -10 4 -57 53 -105
108 -98 110 -224 235 -238 235 -19 0 -196 194 -206 226 -7 19 -16 34 -21 34
-5 0 -9 10 -9 23 0 13 -9 33 -20 45 -11 12 -20 32 -20 45 0 12 -4 27 -9 32
-11 12 -22 94 -24 180 -1 35 -7 66 -15 74 -7 7 -11 20 -7 29 6 16 -13 45 -25
37 -4 -3 -11 2 -14 11 -4 11 -2 15 8 11 10 -4 13 -1 9 9 -3 7 -9 14 -14 14 -5
0 -9 9 -9 19 0 11 -11 33 -25 49 -13 16 -43 65 -66 108 -22 44 -47 86 -55 95
-8 8 -14 20 -14 26 0 5 -9 18 -20 28 -11 10 -20 25 -20 34 0 8 -12 27 -26 42
-24 25 -25 30 -16 78 11 61 8 62 -72 25 -32 -14 -60 -23 -64 -19 -4 3 1 11 11
16 9 6 17 14 17 19 0 6 -1397 10 -3775 10 l-3775 0 0 -1000z m6267 834 c-10
-10 -37 16 -37 34 0 13 4 12 22 -5 12 -13 19 -25 15 -29z m-1763 -179 c125
-58 121 -43 56 -208 -37 -96 -54 -164 -30 -127 5 8 12 12 15 8 10 -10 -18 -48
-50 -68 -31 -19 -31 -19 -95 4 -36 13 -94 32 -130 41 -36 10 -69 21 -73 25 -4
4 1 17 11 31 10 13 40 76 67 139 47 112 104 213 116 208 3 -2 54 -25 113 -53z
m4469 -65 c42 -79 42 -80 23 -80 -16 0 -65 58 -90 107 -21 41 -20 43 7 43 19
0 31 -14 60 -70z m-4820 -7 c-7 -3 -13 -13 -13 -23 0 -10 -5 -22 -10 -25 -6
-4 -8 -11 -5 -16 4 -5 3 -15 -2 -21 -17 -28 -31 -80 -25 -100 4 -17 2 -20 -11
-15 -10 4 -18 0 -22 -11 -3 -9 -33 -30 -68 -47 -34 -16 -64 -32 -67 -35 -16
-16 -209 -99 -257 -111 -27 -7 -51 -17 -56 -23 -5 -7 -12 -5 -21 7 -12 16 -11
21 7 40 12 12 24 18 26 13 2 -6 -1 -12 -7 -14 -7 -2 -12 -8 -12 -13 0 -18 22
3 35 34 l13 30 16 -29 16 -29 -6 30 c-4 17 -11 39 -16 50 -9 20 -9 20 6 1 20
-24 31 -15 16 13 -13 25 -7 27 15 5 21 -21 30 -12 15 16 -11 21 -11 21 15 4
35 -23 42 -12 15 25 -12 17 -16 31 -10 31 6 0 15 -10 21 -23 11 -24 49 -54 49
-38 0 5 -4 11 -9 13 -4 2 -12 14 -16 27 -6 20 -5 23 11 17 10 -4 21 -1 26 6 6
10 10 10 19 -2 8 -11 9 -8 4 15 -5 24 -4 28 6 18 18 -18 32 -16 25 3 -4 12 -2
15 9 11 19 -8 31 13 14 25 -11 7 -9 8 6 6 11 -2 27 -16 34 -32 8 -16 16 -25
18 -19 2 5 -8 31 -22 57 -28 53 -29 56 -16 56 5 0 12 -8 15 -17 4 -10 15 -29
26 -43 l21 -25 -17 43 c-9 24 -14 46 -11 49 4 3 11 -6 16 -21 6 -15 18 -26 28
-26 11 0 14 3 7 8 -6 4 -14 16 -17 26 -6 15 -5 17 6 8 8 -7 17 -9 20 -5 4 3 7
0 7 -7 0 -7 3 -10 6 -7 4 4 1 14 -7 23 -13 16 -11 17 13 11 24 -6 27 -4 30 20
2 19 10 29 28 33 28 8 82 9 63 3z m-120 -40 c-7 -2 -19 -2 -25 0 -7 3 -2 5 12
5 14 0 19 -2 13 -5z m6313 -81 c1 -17 0 -32 -2 -32 -6 0 -34 72 -34 86 0 30
35 -22 36 -54z m-56 38 c-6 -11 -15 -18 -21 -14 -6 4 -6 11 2 20 17 21 31 17
19 -6z m-1200 -52 c0 -6 -3 -8 -7 -5 -3 4 -12 2 -19 -4 -9 -8 -15 -5 -23 10
-8 14 -8 21 2 24 16 6 47 -11 47 -25z m1331 -66 c15 -25 26 -49 22 -55 -3 -6
-1 -7 5 -3 7 4 26 -16 48 -49 36 -54 37 -56 18 -70 -10 -8 -22 -15 -26 -15 -4
0 -13 -7 -22 -15 -13 -14 -16 -13 -28 7 -6 13 -13 32 -15 43 -1 11 -5 32 -7
47 -3 15 -1 30 4 33 6 4 7 11 4 17 -4 6 -10 5 -15 -3 -6 -10 -9 -10 -9 -2 0 7
-7 10 -15 7 -10 -4 -15 0 -15 10 0 9 6 19 14 22 17 6 16 52 -1 59 -7 2 -13 9
-13 15 0 19 21 -1 51 -48z m-487 -15 c9 -18 30 -52 46 -77 17 -25 37 -60 45
-77 8 -18 20 -33 25 -33 6 0 10 -5 10 -10 0 -6 22 -38 48 -73 56 -73 152 -219
152 -233 0 -5 12 -17 25 -27 22 -16 33 -17 112 -7 49 6 131 11 183 10 116 -2
125 -2 117 6 -7 7 30 44 44 44 10 0 59 -63 54 -69 -3 -2 -12 2 -21 10 -15 12
-16 12 -10 -6 4 -16 -1 -25 -23 -38 -101 -60 -291 -285 -291 -346 0 -17 4 -31
10 -31 5 0 27 26 48 58 52 75 185 218 190 203 2 -7 -4 -19 -14 -26 -15 -12
-16 -16 -6 -23 10 -7 5 -12 -18 -22 -37 -16 -66 -63 -47 -78 7 -6 49 -15 95
-22 46 -6 89 -13 96 -16 35 -14 110 45 100 79 -4 13 1 17 20 17 15 0 30 8 36
20 6 11 15 20 20 20 10 0 -14 -51 -43 -93 l-19 -28 21 -6 c14 -3 20 -11 17
-19 -3 -8 -1 -14 4 -14 6 0 10 5 10 10 0 15 18 12 38 -7 28 -28 73 -55 80 -48
4 3 0 10 -7 14 -7 5 -12 14 -10 20 3 8 13 4 27 -9 12 -12 20 -25 17 -29 -2 -5
3 -15 12 -22 12 -10 14 -10 9 -1 -4 6 -3 12 3 12 5 0 13 -4 16 -10 11 -18 56
-6 85 22 27 26 29 26 35 7 8 -23 -7 -70 -45 -146 -26 -52 -30 -83 -9 -83 16 0
39 45 39 78 0 19 4 31 10 27 10 -6 90 69 90 85 0 6 6 10 14 10 17 0 93 -201
135 -358 47 -170 83 -402 64 -402 -5 0 -15 6 -21 12 -9 9 -15 10 -20 2 -10
-16 -245 -11 -250 5 -5 15 -55 14 -70 -1 -7 -7 -12 -20 -12 -29 0 -15 -4 -16
-32 -7 -18 6 -40 14 -49 19 -12 5 -22 2 -34 -11 -21 -23 -43 -12 -70 32 -9 16
-20 26 -25 23 -5 -3 -14 -29 -20 -58 -11 -48 -10 -57 8 -94 15 -29 19 -51 15
-76 -6 -38 -27 -41 -36 -5 -3 11 -10 17 -15 14 -14 -8 -32 -87 -32 -136 0 -23
-7 -66 -16 -95 -9 -34 -14 -78 -11 -120 3 -51 1 -70 -12 -85 -16 -18 -18 -18
-106 1 -313 66 -418 90 -485 108 -118 32 -120 32 -121 -36 -1 -51 -2 -54 -9
-25 -20 84 -8 343 24 527 8 44 12 82 10 84 -2 2 -10 -2 -19 -9 -13 -11 -14
-10 -9 4 3 9 15 16 25 16 15 0 19 7 18 38 0 20 -3 31 -6 25 -7 -20 -19 -15
-20 7 -1 15 4 20 23 20 17 0 24 6 24 19 0 15 -5 18 -21 14 -16 -4 -20 -2 -17
8 3 8 15 13 27 12 11 -2 21 3 21 10 0 6 3 22 6 35 5 18 2 22 -15 22 -11 0 -21
5 -21 11 0 7 9 9 21 6 16 -4 24 4 45 48 29 66 30 81 3 88 -18 5 -25 -4 -49
-56 -68 -152 -122 -374 -151 -622 -21 -188 -10 -463 22 -501 16 -20 69 -18 69
2 0 19 0 19 210 -26 74 -16 173 -36 220 -45 152 -29 261 -57 276 -72 23 -23
17 -36 -13 -28 -16 4 -57 13 -93 21 -36 7 -105 23 -155 34 -214 49 -309 64
-313 52 -2 -7 -11 -12 -20 -12 -14 0 -14 -2 -3 -9 8 -5 11 -16 6 -30 -4 -14
-2 -23 8 -27 8 -3 20 -23 27 -45 7 -21 19 -39 27 -39 8 0 11 -5 8 -11 -4 -6
-14 -8 -22 -5 -11 5 -13 1 -7 -17 4 -12 11 -24 16 -26 5 -1 1 -9 -9 -17 -10
-8 -13 -14 -8 -13 30 4 38 -1 25 -16 -11 -13 -10 -18 6 -30 18 -14 18 -14 -8
-15 -32 0 -38 -15 -10 -22 21 -6 26 -38 5 -38 -7 0 -13 -7 -13 -16 0 -8 -4
-12 -10 -9 -5 3 -10 0 -10 -7 -1 -9 -5 -7 -14 4 -7 10 -16 15 -19 11 -13 -12
-7 -24 16 -33 17 -7 18 -9 5 -9 -10 -1 -18 -4 -18 -7 0 -10 26 -32 46 -37 34
-8 -38 -6 -86 3 -203 38 -288 72 -412 166 -229 175 -482 503 -649 841 -74 151
-81 162 -112 168 -43 9 -138 46 -158 62 -8 7 -20 13 -26 13 -22 0 -62 61 -78
117 -36 121 -5 249 82 341 31 32 32 36 15 48 -16 13 -16 13 1 14 15 0 18 7 16
35 -3 33 1 38 68 89 40 30 74 51 76 48 2 -4 2 -2 1 5 -2 7 14 25 36 40 50 38
148 129 183 173 16 19 63 70 105 114 54 56 70 77 54 73 -22 -5 -22 -5 -5 24
10 16 28 42 40 57 22 27 22 27 23 4 0 -17 4 -21 14 -15 16 9 96 128 96 142 0
5 6 20 13 35 l14 26 12 -23 c7 -13 13 -30 15 -40 1 -9 5 -20 9 -23 4 -4 7 -16
7 -26 0 -10 5 -18 10 -18 20 0 9 -27 -16 -39 -30 -13 -42 -8 -26 12 7 8 9 17
5 20 -25 26 -60 -28 -67 -101 -3 -29 0 -52 5 -52 5 0 9 5 9 11 0 5 5 7 11 3 7
-4 10 3 7 22 -1 15 2 29 9 31 7 3 10 -6 8 -24 -3 -28 9 -53 27 -53 5 0 8 16 5
35 -3 25 0 39 14 51 11 9 19 13 19 8 0 -5 4 -3 9 5 8 12 15 11 45 -10 20 -13
36 -32 36 -41 0 -9 5 -20 10 -23 6 -4 9 -14 6 -23 -9 -29 18 -54 50 -46 32 7
77 48 66 60 -4 4 -2 5 3 1 13 -7 42 9 33 18 -3 4 -22 8 -41 10 -42 3 -97 56
-97 91 0 17 -6 24 -19 24 -10 0 -26 11 -35 25 -16 24 -16 25 6 22 19 -2 22 2
20 23 -5 35 -11 38 -31 14 -17 -21 -18 -21 -29 -3 -16 26 -15 55 4 106 9 24
14 46 12 49 -3 3 -21 -1 -40 -9 -23 -10 -40 -11 -51 -5 -10 5 -17 6 -17 2 0
-4 -9 1 -19 10 -11 10 -17 25 -14 37 3 12 0 19 -8 19 -20 0 -40 36 -32 57 4
10 16 24 26 32 11 8 43 34 71 58 55 47 61 52 94 71 29 16 41 15 17 -1 -13 -10
-15 -16 -6 -21 15 -10 57 17 66 41 7 21 65 61 81 56 6 -2 18 -18 28 -36z
m-5109 -9 c-6 -34 -19 -71 -41 -123 -20 -49 -45 -119 -44 -127 0 -11 -38 -48
-49 -48 -6 0 -1 20 10 44 10 25 34 86 53 138 50 138 55 148 67 148 7 0 8 -12
4 -32z m4323 -131 c2 -10 -3 -17 -11 -17 -16 0 -30 24 -19 34 10 10 27 1 30
-17z m1485 -152 c38 -55 77 -116 87 -137 l20 -36 -36 -21 c-44 -26 -54 -26
-54 -2 0 13 -8 21 -22 23 -13 2 -24 11 -26 20 -3 13 1 16 15 12 10 -3 14 -2 8
3 -17 13 -35 82 -24 89 8 5 4 41 -6 52 -5 6 -55 -21 -55 -30 0 -4 -5 -8 -10
-8 -7 0 -8 13 -4 36 7 36 6 37 -20 30 -16 -4 -26 -2 -26 4 0 18 54 70 70 67 8
-1 46 -47 83 -102z m-7045 77 c2 -7 -3 -12 -12 -12 -9 0 -16 7 -16 16 0 17 22
14 28 -4z m1796 -108 c21 -8 21 -24 0 -24 -11 0 -14 -5 -9 -17 4 -10 9 -29 11
-43 3 -14 7 -31 9 -38 3 -7 -3 -16 -13 -19 -9 -4 -20 -12 -25 -19 -4 -7 -14
-11 -22 -8 -9 4 -15 0 -15 -10 0 -8 -6 -14 -12 -12 -7 3 -26 7 -43 10 -23 5
-27 4 -15 -4 19 -15 -13 -8 -87 17 -57 18 -66 30 -30 35 12 2 20 8 17 13 -2 6
-11 9 -19 7 -11 -3 -10 0 3 13 9 9 16 21 16 25 0 19 87 52 148 57 40 4 59 9
50 14 -10 7 -9 9 4 9 9 0 23 -3 32 -6z m4151 -4 c3 -5 1 -10 -4 -10 -6 0 -11
5 -11 10 0 6 2 10 4 10 3 0 8 -4 11 -10z m-4722 -34 c15 -19 41 -39 57 -46 24
-10 33 -23 45 -64 7 -28 15 -67 17 -86 3 -35 3 -35 -34 -32 -50 4 -98 25 -126
55 -19 20 -23 36 -24 93 -2 64 11 114 31 114 4 0 20 -15 34 -34z m3937 -12 c0
-14 -3 -14 -15 -4 -8 7 -15 14 -15 16 0 2 7 4 15 4 8 0 15 -7 15 -16z m-965
-166 c14 -6 25 -15 25 -19 0 -4 -18 -22 -40 -39 l-40 -32 -10 27 c-26 67 0 93
65 63z m1440 -28 c-3 -5 -12 -10 -18 -10 -7 0 -6 4 3 10 19 12 23 12 15 0z
m-5715 -132 c37 -39 44 -58 21 -58 -19 0 -81 56 -81 73 0 16 40 6 60 -15z
m5820 -12 c0 -3 -4 -8 -10 -11 -5 -3 -10 -1 -10 4 0 6 5 11 10 11 6 0 10 -2
10 -4z m-1896 -41 c29 0 89 -82 83 -114 -3 -16 2 -34 14 -50 15 -18 16 -26 8
-32 -7 -4 -14 -17 -16 -29 -10 -69 -132 -196 -205 -214 -16 -3 -28 -13 -28
-21 0 -8 -8 -15 -19 -15 -10 0 -30 -9 -44 -20 -14 -11 -30 -20 -36 -20 -6 0
-11 -4 -11 -10 0 -5 -7 -10 -15 -10 -8 0 -35 -10 -59 -22 -37 -18 -50 -20 -70
-10 -13 6 -26 21 -28 34 -2 13 -11 24 -23 26 -24 5 -75 51 -75 68 0 28 24 61
68 94 51 38 51 38 143 125 35 33 91 83 124 110 33 28 62 52 65 55 39 39 83 69
93 63 7 -5 21 -8 31 -8z m1906 -10 c-7 -9 -15 -13 -17 -11 -6 6 20 36 26 30 2
-2 -2 -10 -9 -19z m1474 -14 c3 -5 -1 -11 -9 -15 -25 -9 -17 -23 17 -30 21 -4
28 -10 22 -16 -14 -14 -181 11 -174 25 3 6 20 8 38 7 27 -3 34 0 39 17 4 15
13 21 34 21 15 0 30 -4 33 -9z m-2797 -42 c21 -22 42 -48 47 -57 5 -10 30 -42
56 -72 60 -71 83 -107 76 -119 -11 -17 16 -59 40 -65 13 -4 24 -13 24 -22 0
-8 9 -18 19 -22 20 -7 71 -74 71 -93 0 -5 11 -15 25 -21 27 -12 29 -31 4 -36
-14 -2 -65 55 -142 158 -18 25 -47 52 -64 60 -39 19 -79 67 -115 138 -16 32
-44 82 -63 112 -56 87 -43 109 22 39z m-2102 -29 c-10 -11 -23 -20 -29 -20 -6
1 0 10 13 20 30 26 39 26 16 0z m5081 -4 c18 -19 18 -26 -1 -26 -8 0 -15 2
-15 4 0 2 -3 11 -6 20 -8 20 3 21 22 2z m-6302 -43 c64 -39 158 -105 190 -134
18 -17 18 -18 -2 -30 -17 -10 -18 -15 -7 -26 8 -7 18 -13 24 -13 10 0 36 -39
29 -45 -2 -2 -36 18 -75 43 -40 26 -124 80 -186 120 -103 65 -168 112 -155
112 2 0 23 -9 46 -20 54 -26 65 -26 60 5 -7 33 3 32 76 -12z m1166 -33 c0 -5
-7 -10 -15 -10 -8 0 -15 5 -15 10 0 6 7 10 15 10 8 0 15 -4 15 -10z m270 -30
c12 -8 9 -14 -20 -39 -30 -25 -32 -30 -18 -36 10 -4 23 -5 30 -2 7 2 25 -4 39
-14 21 -15 29 -16 37 -6 12 14 62 21 62 9 -1 -9 -30 -48 -30 -39 0 4 -26 -18
-57 -48 -40 -37 -64 -53 -75 -49 -10 3 -18 1 -18 -5 0 -6 -7 -11 -15 -11 -8 0
-15 -7 -15 -15 0 -8 9 -15 20 -15 28 0 25 -21 -11 -66 -43 -55 -54 -59 -101
-38 -32 14 -43 15 -58 6 -15 -9 -28 -8 -65 8 -50 22 -75 25 -75 11 0 -17 -32
-21 -48 -5 -13 14 -14 23 -4 63 9 35 25 57 65 94 45 42 160 134 218 176 36 25
113 37 139 21z m-1186 -125 c-7 -17 -30 -20 -38 -6 -4 5 0 12 6 14 25 10 37 7
32 -8z m1480 -1 c9 -8 16 -20 16 -25 0 -17 -27 -9 -50 16 -23 25 -23 25 -2 25
11 0 28 -7 36 -16z m462 -122 c12 -10 32 -38 44 -63 12 -24 32 -57 44 -74 31
-41 39 -65 22 -65 -8 0 -26 17 -42 38 -16 20 -39 48 -52 62 -20 21 -72 119
-72 136 0 6 30 -12 56 -34z m-2673 -14 c12 -7 29 -18 37 -24 31 -22 109 -45
133 -39 14 4 28 2 31 -4 4 -6 2 -11 -5 -11 -10 0 -10 -3 -1 -12 18 -18 15 -28
-8 -28 -26 0 -25 -16 2 -31 18 -10 24 -8 35 7 13 18 14 18 49 -1 20 -11 39
-25 41 -32 3 -7 12 -13 19 -13 23 0 74 -42 74 -60 0 -9 5 -21 11 -27 7 -7 6
-15 -5 -25 -10 -11 -12 -18 -4 -26 8 -8 15 -6 26 4 8 8 26 14 41 12 22 -3 26
-8 26 -36 0 -21 7 -39 21 -50 11 -9 28 -29 37 -44 10 -16 22 -28 28 -28 9 0
79 -68 79 -77 0 -2 9 -13 20 -25 32 -35 26 -43 -30 -38 -20 2 -22 -1 -12 -12
14 -17 6 -28 -20 -28 -10 0 -18 -5 -18 -11 0 -8 12 -10 35 -6 56 9 108 -46 75
-79 -7 -7 -2 -15 16 -24 22 -12 61 -67 52 -74 -2 -2 -18 -10 -36 -19 -41 -20
-86 -6 -76 25 4 14 0 18 -19 18 -13 0 -35 8 -48 19 -32 25 -96 57 -166 82 -32
12 -67 29 -78 38 -11 10 -32 22 -48 29 -26 11 -28 10 -44 -23 -9 -19 -21 -35
-27 -35 -15 0 -46 -36 -86 -97 -18 -29 -37 -53 -41 -53 -5 0 -15 -13 -24 -30
-9 -16 -22 -30 -30 -30 -20 0 -38 -38 -32 -69 10 -50 -2 -78 -37 -86 -85 -18
-116 -17 -156 4 -22 12 -47 21 -55 21 -7 0 -24 14 -36 31 -29 42 -51 47 -126
33 -86 -16 -95 -27 -98 -111 -3 -60 -5 -68 -21 -65 -11 2 -25 8 -31 14 -9 7
-15 6 -19 -6 -8 -21 -20 -20 -45 5 -18 18 -30 21 -73 17 -35 -3 -56 0 -64 9
-14 14 -108 18 -114 5 -5 -12 -74 -52 -89 -52 -16 0 -112 -96 -121 -121 -8
-22 -78 -35 -89 -17 -11 18 -31 -2 -34 -35 -4 -30 -29 -70 -72 -116 -18 -19
-33 -44 -33 -55 0 -12 -10 -37 -23 -56 l-22 -35 -3 58 c-2 42 4 78 23 132 14
41 28 94 31 118 6 41 5 44 -17 42 -16 -1 -23 -8 -24 -26 -6 -67 -28 -209 -34
-209 -24 1 -32 22 -32 81 0 93 9 177 22 200 6 11 8 26 6 34 -3 7 0 21 7 31 7
11 19 36 25 56 7 21 17 37 23 35 6 -1 15 15 20 36 4 21 15 48 23 60 26 38 18
53 -13 24 -15 -15 -35 -27 -44 -27 -20 0 -58 46 -58 69 0 19 46 120 64 141 8
8 17 33 20 55 6 34 36 94 104 204 l15 25 9 -25 c9 -23 10 -23 20 -4 12 22 129
134 141 135 4 0 7 -12 7 -27 0 -49 18 -10 23 50 4 41 11 63 24 72 18 14 43 4
43 -17 0 -5 12 -27 27 -47 l27 -38 24 29 c13 15 32 28 43 28 11 0 24 11 31 25
8 18 16 24 30 19 14 -4 21 0 25 15 7 27 28 27 52 0 31 -34 35 -38 67 -64 34
-27 54 -32 54 -14 0 16 31 38 53 39 16 0 21 10 18 37 -4 35 54 0 86 -53 10
-16 12 -17 12 -2 1 9 -6 23 -14 32 -8 8 -15 24 -15 35 0 41 41 24 103 -41 53
-58 117 -143 117 -157 -1 -22 -18 -29 -57 -22 -24 5 -46 4 -51 -1 -11 -11
-147 31 -198 61 -23 14 -43 17 -79 14 -51 -6 -44 -22 10 -23 30 0 47 -15 168
-138 18 -18 50 -37 72 -44 22 -6 48 -19 57 -30 9 -10 30 -21 47 -24 17 -4 31
-10 31 -15 0 -5 5 -9 10 -9 6 0 10 9 10 20 0 11 5 20 10 20 6 0 10 -4 10 -9 0
-4 16 -11 36 -14 29 -5 43 -1 70 20 19 14 34 30 34 35 0 6 18 32 40 58 l40 48
-44 36 c-25 20 -49 36 -55 36 -6 0 -17 13 -26 29 -8 16 -27 39 -42 51 -15 12
-59 50 -98 85 -38 36 -85 75 -104 87 -51 35 -57 49 -37 93 17 36 19 37 58 31
22 -4 53 -13 70 -22 39 -20 59 -13 30 11 -39 34 -29 48 28 40 42 -6 50 -4 50
9 0 20 40 21 73 4z m2347 -101 c-1 -21 -1 -21 -15 -3 -8 10 -12 23 -9 28 9 14
24 -2 24 -25z m290 -20 c0 -6 -9 -2 -20 8 -11 10 -20 23 -20 28 0 6 9 2 20 -8
11 -10 20 -23 20 -28z m-3906 24 c14 -5 16 -10 8 -15 -15 -9 -52 2 -52 15 0
11 17 11 44 0z m3832 1 c12 -8 38 -52 32 -56 -2 -2 -18 1 -35 6 -22 6 -33 15
-33 27 0 28 14 38 36 23z m1734 -38 c0 -10 -7 -14 -22 -12 -32 5 -35 28 -4 28
17 0 26 -5 26 -16z m-7279 -88 c-6 -24 -13 -76 -16 -117 -3 -41 -13 -112 -22
-158 -15 -75 -15 -84 -1 -92 9 -5 85 -98 168 -206 84 -109 158 -204 164 -212
9 -11 5 -13 -24 -8 -90 14 -106 27 -135 110 -14 38 -39 94 -57 125 -31 54
-103 142 -117 142 -7 0 -25 -104 -47 -280 -31 -244 -27 -918 7 -1240 18 -164
38 -365 39 -372 0 -18 -19 -6 -26 14 -3 12 -12 27 -18 34 -19 18 -91 374 -100
489 -2 33 -9 89 -15 125 -6 37 -11 207 -12 390 0 334 5 401 56 735 28 187 31
199 86 386 10 36 19 75 19 87 0 11 5 24 10 27 6 3 10 15 10 26 0 10 5 19 10
19 6 0 10 12 10 28 1 24 2 25 11 9 8 -13 8 -31 0 -61z m5336 52 c-3 -8 -6 -5
-6 6 -1 11 2 17 5 13 3 -3 4 -12 1 -19z m-749 -4 c22 -15 29 -39 14 -48 -4 -2
-23 11 -41 30 -28 29 -31 34 -15 34 11 0 30 -7 42 -16z m2659 -39 c-29 -26
-47 -32 -47 -16 0 12 42 40 60 40 10 0 5 -8 -13 -24z m-4714 9 c7 -7 -14 -44
-25 -44 -5 0 -8 8 -8 18 0 27 18 41 33 26z m2827 -20 c0 -8 -4 -12 -10 -9 -5
3 -10 13 -10 21 0 8 5 12 10 9 6 -3 10 -13 10 -21z m-3345 -24 c4 -6 -7 -10
-25 -10 -18 0 -29 4 -25 10 3 6 15 10 25 10 10 0 22 -4 25 -10z m4321 -50
c224 -55 306 -79 264 -80 -39 0 -203 33 -350 69 -89 23 -164 41 -166 41 -2 0
-4 7 -4 15 0 8 2 15 5 15 3 0 116 -27 251 -60z m-3883 35 c1 -5 -6 -11 -15
-13 -11 -2 -18 3 -18 13 0 17 30 18 33 0z m2115 9 c22 -6 32 -34 11 -34 -17 0
-49 20 -49 30 0 11 6 12 38 4z m712 -24 c0 -5 -4 -10 -9 -10 -6 0 -13 5 -16
10 -3 6 1 10 9 10 9 0 16 -4 16 -10z m3705 0 c3 -5 -1 -10 -9 -10 -9 0 -16 5
-16 10 0 6 4 10 9 10 6 0 13 -4 16 -10z m-3208 -36 c-3 -3 -12 -4 -19 -1 -8 3
-5 6 6 6 11 1 17 -2 13 -5z m285 -46 c34 -18 66 -37 70 -43 9 -13 158 -19 228
-8 183 28 470 -53 470 -133 0 -14 -7 -27 -17 -31 -17 -7 -194 12 -253 27 -19
5 -66 16 -105 24 -113 25 -396 95 -444 109 -51 16 -74 51 -40 62 10 4 19 11
19 16 0 13 1 12 72 -23z m2888 -72 c0 -3 -4 -8 -10 -11 -5 -3 -10 -1 -10 4 0
6 5 11 10 11 6 0 10 -2 10 -4z m-1523 -62 c4 -12 -42 -36 -51 -27 -3 3 -1 14
5 25 11 20 40 21 46 2z m-398 -72 c1 -23 -3 -32 -11 -29 -13 4 -13 8 -9 70 2
27 4 29 11 12 5 -11 9 -35 9 -53z m-1059 22 c0 -19 -35 -74 -47 -74 -11 0 -13
7 -8 33 4 17 9 35 12 40 5 8 43 10 43 1z m48 -28 c7 -35 -7 -66 -31 -66 -13 0
-17 3 -10 8 6 4 11 14 11 22 -3 40 3 61 15 58 6 -3 14 -13 15 -22z m1447 -15
c-3 -6 -11 -11 -17 -11 -6 0 -6 6 2 15 14 17 26 13 15 -4z m135 9 c0 -5 -7
-10 -16 -10 -8 0 -12 5 -9 10 3 6 10 10 16 10 5 0 9 -4 9 -10z m-1535 -40 c3
-5 1 -10 -4 -10 -6 0 -11 5 -11 10 0 6 2 10 4 10 3 0 8 -4 11 -10z m997 -35
c-4 -38 -21 -67 -33 -60 -9 6 -3 68 8 88 11 18 28 -2 25 -28z m589 -206 c-26
-21 -37 -19 -28 6 4 8 17 15 29 15 l23 -1 -24 -20z m-2027 -25 c24 -9 20 -19
-34 -79 -36 -39 -50 -64 -50 -84 0 -16 -6 -34 -14 -40 -11 -9 -15 -4 -19 26
-7 40 10 76 67 145 37 43 31 39 50 32z m409 -55 c23 -31 17 -61 -16 -75 -12
-6 -15 -9 -7 -7 9 2 5 -5 -9 -17 -12 -11 -28 -17 -35 -13 -6 3 -8 3 -4 -2 8
-8 -40 -55 -56 -55 -5 0 -32 -17 -60 -38 -28 -22 -67 -48 -87 -60 l-35 -21
-13 36 c-8 20 -29 51 -47 69 -19 17 -34 39 -34 49 0 15 6 16 46 10 28 -4 44
-3 40 3 -3 5 16 20 41 33 26 13 55 38 66 56 13 23 30 36 55 42 99 26 129 24
155 -10z m1696 9 c10 -17 10 -20 0 -11 -9 9 -16 10 -26 1 -17 -13 -28 -4 -20
17 9 22 30 19 46 -7z m-814 2 c8 -14 -61 -40 -104 -40 -45 1 -103 25 -81 34 8
3 49 7 90 9 41 2 78 4 82 5 4 1 10 -2 13 -8z m-3407 -28 c13 -2 26 -11 29 -18
3 -8 11 -14 18 -14 8 0 17 -4 20 -10 4 -6 -8 -10 -30 -10 -25 0 -44 8 -65 29
-34 32 -39 47 -12 36 9 -4 27 -10 40 -13z m-288 -22 c28 -22 70 -26 87 -9 22
22 42 3 36 -33 -4 -28 0 -40 26 -67 33 -35 39 -51 19 -51 -7 0 -5 -5 5 -11 14
-8 15 -14 7 -24 -9 -10 -3 -16 27 -25 21 -7 47 -19 58 -27 17 -12 7 -13 -79
-7 -82 6 -98 5 -94 -7 2 -7 19 -16 37 -20 40 -8 47 -15 32 -32 -9 -12 -3 -15
35 -21 26 -3 66 -6 89 -6 60 0 77 -22 73 -96 -3 -53 -6 -60 -33 -74 -16 -8
-33 -18 -36 -23 -10 -14 -122 -28 -130 -16 -11 18 -68 0 -102 -32 -32 -31 -53
-37 -59 -17 -3 8 -19 8 -63 -3 -49 -11 -62 -19 -73 -41 -16 -34 -57 -39 -65
-9 -3 11 -2 23 1 26 4 3 14 27 24 52 13 36 15 50 6 60 -11 14 -12 94 -2 150 3
14 23 64 45 109 24 49 44 108 49 143 10 68 15 81 36 81 16 0 19 16 4 25 -14 9
-12 25 3 25 6 0 23 -9 37 -20z m-2969 -95 c12 -30 26 -55 30 -55 4 0 14 -18
23 -40 20 -51 21 -142 0 -181 -31 -61 -6 -50 51 24 33 42 70 80 81 86 17 7 21
16 18 43 -2 18 0 28 4 21 4 -7 18 -11 30 -8 12 2 21 1 19 -3 -1 -4 11 -20 26
-36 16 -16 26 -34 23 -42 -5 -12 0 -15 19 -14 16 2 86 -46 91 -62 6 -22 24
-22 90 -4 84 23 225 38 262 27 27 -8 45 -6 90 11 32 11 62 24 67 28 6 5 59 24
119 44 114 38 199 48 177 22 -14 -17 -4 -46 18 -47 10 0 11 -2 4 -6 -7 -2 -13
-12 -13 -21 0 -9 -7 -30 -16 -47 -34 -64 -74 -168 -74 -190 0 -13 5 -27 10
-30 6 -3 10 -15 10 -26 0 -10 16 -39 35 -65 24 -31 35 -56 34 -77 0 -18 -3
-26 -6 -18 -5 11 -7 11 -14 0 -8 -12 -11 -11 -19 1 -5 8 -10 11 -10 6 0 -6 -6
-1 -14 9 -13 18 -14 16 -14 -20 -1 -22 8 -66 19 -98 11 -32 17 -62 14 -67 -7
-11 24 -22 46 -15 28 9 23 -8 -12 -39 -32 -29 -33 -42 -2 -32 30 10 38 3 39
-34 1 -61 21 -163 43 -220 15 -40 31 -62 58 -80 34 -22 36 -25 16 -28 -12 -2
-35 4 -51 12 -30 15 -115 123 -147 185 -9 19 -28 46 -41 60 -13 14 -24 29 -24
33 0 16 -45 7 -67 -14 -22 -21 -24 -21 -43 -3 -12 11 -28 15 -42 12 -13 -4
-29 0 -39 9 -11 10 -30 14 -51 12 l-33 -4 33 -15 c41 -19 31 -30 -53 -54 -33
-10 -71 -25 -85 -34 -50 -32 -66 -41 -100 -56 -19 -9 -41 -14 -49 -13 -16 3
-32 55 -56 178 -8 41 -19 94 -24 118 -4 23 -6 42 -3 42 2 0 -1 7 -8 15 -29 35
65 26 121 -12 15 -10 55 -37 89 -60 35 -23 67 -40 71 -37 5 3 9 20 9 37 0 48
14 65 40 50 11 -7 29 -13 41 -13 16 0 19 3 12 13 -18 22 -20 64 -4 98 20 42
47 49 62 16 10 -23 47 -43 57 -32 8 8 -43 114 -55 117 -7 2 4 24 28 55 23 29
38 56 35 61 -13 21 -117 72 -146 72 -35 0 -53 27 -27 42 23 13 21 23 -10 53
-31 28 -53 34 -32 9 11 -14 10 -18 -6 -30 -10 -8 -26 -14 -35 -14 -21 0 -70
23 -70 33 0 5 -5 5 -11 1 -6 -3 -26 2 -45 12 -33 18 -36 18 -87 0 -28 -10 -70
-27 -92 -38 -26 -13 -66 -21 -114 -24 -41 -2 -78 -7 -83 -12 -6 -6 -18 -7 -29
-5 -16 5 -18 12 -13 54 3 27 2 55 -4 62 -5 6 -8 20 -7 30 5 26 -28 21 -57 -10
-14 -16 -35 -47 -47 -70 -11 -22 -32 -51 -47 -62 -15 -12 -24 -21 -20 -21 3 0
-15 -42 -40 -92 -51 -102 -110 -167 -166 -185 -52 -16 -68 -2 -68 57 0 28 5
50 10 50 6 0 10 16 10 35 0 24 5 35 15 35 18 0 21 60 3 78 -6 6 -12 21 -13 32
-2 18 0 19 15 5 9 -8 21 -15 27 -15 5 0 18 -9 28 -20 21 -24 45 -26 45 -5 0 8
-5 15 -11 15 -5 0 -8 4 -5 8 3 5 20 6 38 4 29 -4 31 -3 20 11 -7 8 -17 29 -21
45 -8 26 -4 38 28 83 20 30 47 59 59 64 42 19 41 39 -14 217 -17 55 -17 58 -5
58 5 0 19 -25 32 -55z m6839 20 c0 -8 -4 -15 -9 -15 -5 0 -11 7 -15 15 -3 9 0
15 9 15 8 0 15 -7 15 -15z m-2704 -66 c3 -5 2 -14 -1 -20 -7 -10 -45 16 -45
32 0 9 39 -1 46 -12z m4541 -41 c-3 -8 -6 -5 -6 6 -1 11 2 17 5 13 3 -3 4 -12
1 -19z m-1028 -11 c8 -10 7 -17 -1 -25 -19 -19 -28 -14 -28 13 0 27 12 32 29
12z m-3579 -11 c0 -11 -19 -15 -25 -6 -3 5 1 10 9 10 9 0 16 -2 16 -4z m5150
-10 c0 -3 -4 -8 -10 -11 -5 -3 -10 -1 -10 4 0 6 5 11 10 11 6 0 10 -2 10 -4z
m-4999 -68 c6 -11 6 -18 0 -18 -15 0 -41 30 -41 47 0 13 3 13 16 3 8 -8 20
-22 25 -32z m3453 28 c-6 -16 -44 -29 -44 -16 0 9 29 29 42 30 4 0 5 -6 2 -14z
m46 -31 c0 -13 -36 -35 -56 -35 -9 0 -3 27 8 38 17 17 48 15 48 -3z m-2783
-57 c-3 -8 -6 -5 -6 6 -1 11 2 17 5 13 3 -3 4 -12 1 -19z m1610 -47 c43 -11
94 -24 113 -30 19 -6 59 -11 88 -11 37 0 80 -11 150 -39 210 -83 239 -101 366
-226 71 -70 124 -115 137 -115 16 0 18 3 9 19 -14 28 -13 31 15 31 13 0 33 10
45 22 14 15 34 22 70 25 54 3 62 -4 29 -25 -29 -18 -23 -64 9 -69 13 -2 33
-10 45 -18 12 -8 29 -15 39 -15 22 0 85 -75 126 -153 40 -74 39 -123 -2 -166
-14 -15 -26 -30 -26 -34 0 -4 13 -35 29 -69 16 -35 34 -80 41 -101 13 -41 86
-135 185 -238 68 -70 151 -136 310 -244 55 -37 102 -69 104 -71 2 -2 -8 -8
-21 -15 -21 -9 -32 -6 -75 20 -28 17 -55 31 -60 31 -6 0 -22 9 -37 21 -14 11
-26 17 -26 13 0 -5 -6 1 -14 12 -8 11 -33 26 -55 34 -23 7 -41 19 -41 27 0 8
-5 11 -10 8 -6 -4 -8 -10 -6 -14 5 -8 -20 -23 -56 -35 -24 -7 -23 -26 2 -26
15 0 20 -7 20 -25 0 -14 5 -25 10 -25 6 0 10 12 10 28 1 23 2 25 13 12 7 -9
19 -14 27 -13 17 4 45 -51 35 -67 -4 -6 1 -20 10 -30 15 -17 15 -19 -4 -24
-12 -3 -31 -9 -43 -12 -17 -5 -20 -3 -14 11 8 22 -1 36 -20 28 -10 -4 -12 -9
-4 -18 8 -9 5 -14 -10 -18 -14 -4 -18 -10 -14 -22 5 -13 2 -16 -12 -13 -10 2
-18 10 -16 18 2 7 0 20 -3 28 -5 12 -10 11 -30 -8 -14 -13 -31 -20 -39 -17
-10 4 -16 1 -16 -8 0 -14 -29 -35 -49 -35 -21 0 -11 18 14 24 14 4 25 11 25
16 0 18 -32 11 -51 -11 -17 -20 -20 -20 -34 -5 -9 9 -18 32 -20 51 -4 41 18
58 72 59 19 1 38 9 45 19 11 15 18 16 40 8 19 -7 29 -7 34 1 7 11 -15 30 -27
22 -4 -2 -19 0 -33 5 -21 9 -25 16 -23 51 1 37 4 40 34 46 18 3 36 11 39 16
10 16 -58 67 -90 68 -23 0 -42 12 -77 50 -45 48 -69 62 -69 40 0 -6 -17 -9
-39 -8 -30 2 -37 6 -29 15 11 14 -7 73 -23 73 -15 0 -10 30 5 36 12 5 13 11 4
30 -7 16 -17 23 -26 19 -12 -4 -12 -3 -3 9 9 10 9 16 1 21 -8 5 -8 11 0 20 7
8 8 19 4 26 -5 8 -10 7 -16 -5 -5 -10 -21 -21 -34 -26 -29 -11 -31 -26 -4 -35
11 -3 20 -13 20 -21 0 -8 -4 -13 -10 -9 -8 5 -50 -28 -50 -39 0 -11 -48 -56
-59 -56 -8 0 -9 -5 -1 -19 14 -27 13 -28 -16 -35 -17 -5 -24 -12 -20 -21 3 -9
-3 -19 -15 -25 -10 -6 -31 -29 -45 -51 -17 -27 -30 -39 -40 -35 -15 6 -74 -46
-74 -64 0 -5 -10 -18 -22 -29 -18 -18 -30 -20 -76 -14 -37 4 -53 3 -49 -4 4
-6 -6 -16 -21 -22 -15 -6 -36 -25 -47 -41 -22 -32 -75 -43 -75 -16 0 8 -6 16
-12 19 -10 3 -10 8 1 21 17 21 7 33 -14 16 -28 -23 -29 -1 -2 26 15 15 27 35
27 44 0 25 25 43 49 35 15 -5 24 1 35 24 9 17 16 36 16 44 0 8 7 18 17 21 15
6 15 8 -2 20 -14 10 -15 17 -7 32 5 10 13 40 17 67 6 42 5 47 -11 47 -11 0
-32 -7 -48 -15 -15 -8 -36 -15 -45 -15 -10 0 -28 -11 -41 -25 -13 -14 -32 -25
-42 -25 -22 0 -23 9 -4 35 7 11 16 30 20 43 6 18 4 22 -15 22 -23 0 -23 1 -5
18 13 12 20 14 23 5 6 -18 162 116 170 145 8 33 -3 38 -42 19 -20 -9 -47 -17
-60 -17 -38 0 -134 -42 -169 -74 -17 -16 -48 -40 -69 -54 -21 -14 -44 -40 -52
-59 -8 -18 -18 -33 -23 -33 -5 0 -12 34 -14 76 -4 58 -9 79 -22 86 -10 6 -16
21 -16 41 1 18 -2 44 -6 60 -6 26 -5 27 30 27 53 0 76 15 76 50 0 33 -23 50
-68 50 -33 0 -57 -22 -67 -61 -5 -19 -17 -30 -45 -39 -52 -17 -82 -7 -111 37
-45 68 -238 149 -274 114 -6 -5 -41 -12 -80 -15 -114 -8 -120 -9 -123 -31 -7
-51 -13 -65 -28 -65 -16 0 -44 56 -44 89 0 12 -12 24 -37 34 -54 22 -100 68
-112 113 -6 22 -18 49 -26 62 -23 32 -5 84 72 210 28 45 110 129 175 180 99
76 204 119 328 132 111 12 146 11 227 -9z m-1646 -44 c-8 -8 -11 -7 -11 4 0
20 13 34 18 19 3 -7 -1 -17 -7 -23z m-541 13 c0 -5 -2 -10 -4 -10 -3 0 -8 5
-11 10 -3 6 -1 10 4 10 6 0 11 -4 11 -10z m-2330 -32 c25 -11 59 -33 75 -48
17 -16 41 -35 55 -43 62 -34 89 -52 100 -70 21 -35 2 -29 -73 22 -63 42 -83
50 -123 52 -70 2 -131 -15 -162 -44 -15 -13 -37 -28 -48 -31 -12 -4 -24 -16
-27 -26 -9 -33 -28 -25 -64 27 -51 72 -16 146 75 158 26 4 56 10 67 15 31 13
76 9 125 -12z m1917 -40 c-3 -8 -6 -5 -6 6 -1 11 2 17 5 13 3 -3 4 -12 1 -19z
m7 -97 c-2 -2 -19 7 -39 20 -24 17 -35 31 -35 49 1 23 3 22 39 -20 22 -25 38
-47 35 -49z m-3559 6 c7 -10 19 -57 26 -105 16 -109 15 -106 19 -112 1 -3 3
-31 4 -62 0 -31 4 -60 8 -64 4 -3 3 -14 -2 -24 -5 -9 -8 -31 -8 -49 1 -17 -3
-36 -8 -40 -16 -15 -74 -31 -74 -20 0 5 -8 9 -18 9 -25 0 -42 19 -42 47 0 13
-4 23 -10 23 -5 0 -10 -5 -10 -10 0 -7 -7 -7 -21 0 -11 7 -18 14 -15 17 10 10
-16 33 -38 34 -11 0 -16 3 -10 5 13 5 7 41 -8 61 -6 7 -7 27 -3 45 4 24 3 29
-4 18 -5 -8 -13 -12 -16 -8 -8 8 5 58 16 58 5 0 6 13 3 30 -4 18 -1 36 6 45 8
10 9 15 2 15 -6 0 -9 7 -6 15 4 8 10 12 15 9 15 -9 10 18 -7 38 -14 15 -15 20
-3 34 20 24 185 17 204 -9z m3495 3 c0 -5 -2 -10 -4 -10 -3 0 -8 5 -11 10 -3
6 -1 10 4 10 6 0 11 -4 11 -10z m1026 -22 c48 -51 90 -123 120 -201 15 -40 44
-106 64 -147 21 -41 57 -120 80 -175 23 -55 46 -104 50 -110 6 -9 70 -160 70
-167 0 -2 -11 -4 -24 -4 -19 -1 -28 6 -41 35 -97 213 -204 422 -232 455 -19
23 -29 27 -51 21 -40 -10 -85 -62 -78 -91 5 -17 2 -24 -8 -24 -8 0 -16 -6 -18
-12 -7 -21 -55 40 -99 126 -22 43 -58 105 -79 138 l-39 59 31 19 c17 10 35 17
40 14 5 -3 41 4 80 16 69 21 70 22 64 51 -5 25 -3 29 17 29 13 0 36 -14 53
-32z m3024 -8 c12 -7 12 -12 -4 -29 -20 -22 -60 -28 -71 -12 -3 5 7 19 21 30
30 24 33 24 54 11z m-2866 -96 c20 -19 21 -34 2 -34 -13 0 -26 20 -26 41 0 13
6 11 24 -7z m2889 -14 c10 -17 13 -30 8 -30 -6 0 -11 7 -11 15 0 8 -9 15 -20
15 -20 0 -26 11 -13 23 11 12 18 8 36 -23z m66 -90 c25 -45 29 -47 47 -23 11
17 14 16 37 -9 13 -14 27 -33 30 -41 3 -8 18 -21 34 -29 21 -10 27 -19 25 -39
-4 -33 29 -74 77 -95 31 -14 41 -24 46 -50 3 -21 13 -35 26 -39 12 -4 18 -12
15 -21 -3 -8 3 -20 14 -26 13 -9 18 -19 14 -35 -6 -21 -4 -22 27 -13 38 11 52
-1 43 -37 -5 -17 3 -30 32 -55 21 -18 49 -46 63 -61 14 -16 35 -39 46 -51 11
-12 18 -30 17 -41 -2 -10 3 -22 12 -27 14 -8 14 -11 -1 -35 l-17 -26 26 6 c14
4 33 10 41 13 10 3 18 -3 22 -18 4 -13 14 -31 23 -40 14 -16 13 -20 -12 -39
-14 -11 -47 -50 -72 -85 -26 -36 -51 -63 -58 -61 -16 5 -50 81 -39 84 6 2 19
10 29 18 17 13 15 14 -27 15 -25 0 -49 3 -52 7 -4 4 4 19 19 34 l25 26 -26 -5
c-19 -3 -30 1 -41 17 -8 11 -24 21 -35 21 -12 0 -19 7 -19 19 0 11 -11 33 -25
49 -14 17 -25 36 -25 43 0 29 -46 104 -65 108 -29 5 -36 22 -19 45 12 17 12
22 -1 35 -8 9 -23 26 -35 39 -11 12 -18 26 -16 31 3 4 -12 21 -33 36 -41 31
-68 96 -56 134 5 16 2 21 -14 21 -49 0 -66 25 -34 51 14 13 13 15 -13 19 -19
3 -33 15 -42 33 -14 28 -26 34 -37 17 -14 -23 -20 -6 -22 60 -3 80 9 85 46 20z
m-4339 36 c0 -3 -4 -8 -10 -11 -5 -3 -10 -1 -10 4 0 6 5 11 10 11 6 0 10 -2
10 -4z m-39 -68 c10 -18 9 -20 -6 -15 -9 4 -19 7 -21 7 -2 0 -4 7 -4 15 0 22
18 18 31 -7z m1526 -55 c-3 -10 -5 -4 -5 12 0 17 2 24 5 18 2 -7 2 -21 0 -30z
m-654 -30 c56 -91 197 -407 252 -568 9 -27 21 -59 25 -70 10 -23 30 -118 30
-141 0 -8 -11 -19 -24 -25 -38 -18 -95 26 -136 103 -27 50 -25 69 3 28 25 -39
68 -54 103 -38 13 6 24 15 24 19 0 11 -16 51 -51 124 -15 33 -37 81 -48 108
-15 36 -25 47 -43 48 -18 1 -19 2 -5 6 33 9 11 28 -29 26 l-39 -2 33 10 c37
11 41 26 10 39 -13 5 -17 9 -10 9 28 2 10 21 -20 22 -30 0 -31 1 -10 9 34 14
26 30 -15 31 -32 1 -34 2 -14 8 36 10 39 31 4 31 -25 1 -26 2 -11 14 21 16 13
26 -21 27 -26 0 -26 0 -3 9 27 11 30 34 3 27 -10 -2 -24 -1 -31 3 -8 5 -2 10
15 14 22 6 25 9 15 21 -15 19 -28 19 -62 1 -32 -17 -34 -15 -43 39 -4 22 -12
46 -18 53 -13 16 7 32 40 32 12 0 25 5 28 10 11 18 24 11 48 -27z m-927 -13
c15 -22 25 -42 22 -45 -7 -8 -78 67 -72 76 10 17 24 9 50 -31z m5740 0 c141
-29 250 -57 282 -72 22 -11 28 -22 33 -58 3 -25 8 -52 10 -60 4 -16 3 -16 -84
-19 l-48 -1 -35 -75 c-19 -41 -41 -75 -49 -75 -25 0 -51 35 -46 63 1 4 -7 11
-16 14 -28 10 -42 35 -43 71 0 25 -5 35 -20 39 -11 3 -20 10 -20 15 0 6 -13 7
-32 3 l-32 -7 27 32 c30 35 35 55 12 47 -8 -4 -25 3 -37 13 -13 11 -34 28 -47
38 -32 24 -22 52 17 52 16 0 73 -9 128 -20z m-5869 -62 c6 -7 13 -35 17 -62 6
-48 5 -50 -45 -105 -102 -111 -134 -141 -161 -154 -15 -6 -28 -15 -28 -20 0
-4 -7 -19 -16 -33 -14 -20 -19 -22 -31 -12 -16 13 -34 -3 -77 -63 l-15 -22
-36 24 c-41 27 -145 163 -145 189 0 17 111 130 128 130 5 0 12 -13 15 -30 4
-19 17 -34 36 -44 27 -15 33 -14 78 5 26 11 66 38 88 59 22 22 60 50 85 63 25
13 54 37 65 55 22 35 28 38 42 20z m-2400 -210 c3 -15 10 -28 16 -28 6 0 8 -3
5 -6 -3 -3 8 -20 24 -37 50 -53 63 -76 49 -90 -8 -8 -11 -8 -11 2 0 7 -6 11
-13 8 -8 -3 -26 8 -41 24 -17 17 -22 29 -14 29 9 1 9 4 -3 13 -9 7 -14 18 -12
25 3 6 -2 12 -11 12 -10 0 -13 6 -10 15 4 9 0 15 -8 15 -20 0 -38 61 -24 77
14 15 45 -19 53 -59z m3420 20 c-3 -8 -6 -5 -6 6 -1 11 2 17 5 13 3 -3 4 -12
1 -19z m-3527 -18 c0 -5 -7 -10 -15 -10 -8 0 -15 5 -15 10 0 6 7 10 15 10 8 0
15 -4 15 -10z m5294 -41 c17 -21 17 -22 -11 -52 -68 -74 -112 -97 -160 -82
-21 7 7 65 53 112 50 49 88 56 118 22z m36 -117 c0 -40 -8 -44 -37 -17 -29 26
-23 45 13 45 20 0 24 -5 24 -28z m-5084 -7 c-26 -19 -42 -19 -26 0 7 8 20 15
29 15 13 -1 13 -3 -3 -15z m3467 -2 c-7 -2 -19 -2 -25 0 -7 3 -2 5 12 5 14 0
19 -2 13 -5z m1552 -13 c3 -5 -1 -10 -9 -10 -9 0 -16 5 -16 10 0 6 4 10 9 10
6 0 13 -4 16 -10z m211 -50 c17 -50 58 -94 103 -112 46 -18 45 -19 65 45 3 9
10 17 15 17 7 0 8 -23 4 -62 -11 -104 -4 -267 11 -260 3 1 15 2 25 2 25 0 39
40 18 51 -13 8 -13 13 2 44 9 19 19 34 22 35 13 0 29 -53 23 -76 -6 -23 -4
-24 19 -19 23 6 26 3 33 -29 3 -20 10 -39 15 -42 5 -3 9 -18 9 -34 l0 -30 -58
5 c-56 4 -59 3 -76 -25 -9 -17 -22 -27 -28 -24 -9 6 -74 13 -123 14 -11 0 -36
8 -55 18 -47 23 -46 22 -31 32 11 6 10 13 -7 34 -11 15 -23 22 -26 17 -4 -5
-2 -12 4 -16 7 -4 6 -14 -2 -28 -7 -12 -12 -26 -13 -31 0 -20 -26 -16 -35 6
-8 18 -9 14 -4 -19 5 -35 3 -43 -10 -43 -13 0 -13 -5 -1 -47 8 -26 19 -49 25
-51 18 -6 11 -29 -10 -35 -11 -3 -33 -2 -48 2 -21 6 -29 15 -35 47 -12 54 -37
102 -69 135 -16 15 -28 32 -28 37 0 5 -9 17 -19 26 -50 46 -33 122 48 205 51
53 66 79 122 212 l24 56 40 -12 c32 -10 42 -19 51 -45z m-1830 -45 c3 -11 -4
0 -15 24 -12 24 -21 51 -21 60 1 15 26 -43 36 -84z m1284 -45 c9 -6 15 -28 17
-62 1 -36 7 -56 19 -65 9 -6 14 -18 11 -26 -3 -8 -1 -19 5 -25 5 -5 12 -27 15
-48 3 -22 10 -45 15 -51 8 -9 6 -13 -5 -13 -18 0 -64 91 -71 142 -4 33 -40 98
-58 106 -5 2 -8 15 -8 28 0 18 5 24 23 24 12 0 29 -5 37 -10z m1010 -70 c-7
-37 -67 -139 -82 -140 -11 0 4 84 19 110 19 31 54 70 63 70 4 0 4 -18 0 -40z
m825 -39 c-8 -13 -45 -15 -45 -2 0 5 10 11 23 13 27 5 31 3 22 -11z m-6219
-88 c-4 -9 4 -31 20 -54 23 -34 26 -59 5 -59 -7 0 -41 100 -41 120 0 6 5 10
11 10 6 0 8 -7 5 -17z m-2526 -13 c0 -5 -4 -10 -10 -10 -5 0 -10 5 -10 10 0 6
5 10 10 10 6 0 10 -4 10 -10z m2493 -62 c41 -47 41 -47 26 -68 -7 -11 -12 -12
-15 -3 -3 6 -18 30 -35 52 -51 71 -33 85 24 19z m89 0 c-9 -9 -12 -7 -12 12 0
19 3 21 12 12 9 -9 9 -15 0 -24z m323 -10 c15 -7 35 -29 46 -50 11 -21 23 -38
28 -38 4 0 33 9 64 19 43 15 59 17 71 8 21 -16 10 -30 -52 -61 -55 -28 -85
-28 -96 0 -5 13 -11 11 -37 -10 -78 -66 -183 6 -135 93 13 24 51 50 73 51 7 0
24 -5 38 -12z m-265 -28 c0 -11 -77 -70 -92 -70 -10 0 17 28 57 57 35 26 35
26 35 13z m5585 -20 c3 -5 2 -10 -4 -10 -5 0 -13 5 -16 10 -3 6 -2 10 4 10 5
0 13 -4 16 -10z m-5509 -52 c42 -39 72 -88 52 -87 -19 1 -55 17 -40 18 10 1
10 5 -2 17 -9 8 -16 20 -16 25 0 5 -4 9 -9 9 -12 0 -9 -33 4 -42 6 -4 1 -8 -9
-8 -11 0 -31 10 -44 23 -17 15 -23 18 -22 7 4 -26 0 -50 -7 -50 -21 1 -44 30
-39 47 5 15 79 73 93 73 2 0 20 -15 39 -32z m4394 -37 c12 -26 15 -28 -43 19
-10 8 -23 23 -28 32 -8 14 -3 13 25 -5 19 -12 39 -33 46 -46z m-3316 19 c-1
-17 0 -40 4 -52 5 -20 6 -20 18 -3 16 21 37 10 29 -15 -3 -10 4 -35 15 -55 12
-21 19 -44 16 -51 -8 -21 -44 -17 -51 7 -6 18 -41 39 -66 39 -5 0 -9 -11 -9
-25 0 -28 -17 -32 -69 -14 -26 9 -29 14 -20 25 6 8 29 17 50 20 31 5 41 12 45
31 4 15 1 30 -9 41 -20 22 -12 54 16 69 33 16 33 15 31 -17z m-4141 -17 c-7
-2 -19 -2 -25 0 -7 3 -2 5 12 5 14 0 19 -2 13 -5z m2907 -43 c0 -5 -5 -10 -11
-10 -5 0 -7 5 -4 10 3 6 8 10 11 10 2 0 4 -4 4 -10z m1360 -20 c0 -5 -7 -10
-15 -10 -8 0 -15 5 -15 10 0 6 7 10 15 10 8 0 15 -4 15 -10z m3033 -7 c8 -7
-11 -33 -24 -33 -5 0 -9 9 -9 20 0 19 20 27 33 13z m2037 -23 c0 -5 -4 -10
-10 -10 -5 0 -10 5 -10 10 0 6 5 10 10 10 6 0 10 -4 10 -10z m-1797 -71 c39
-27 78 -49 88 -49 9 0 22 -7 30 -16 11 -14 8 -20 -26 -48 -24 -20 -36 -37 -31
-45 4 -6 3 -18 -4 -26 -24 -29 18 -64 157 -132 91 -44 131 -69 124 -76 -17
-17 -97 -24 -168 -15 -62 9 -69 8 -84 -11 -23 -28 -29 -26 -29 8 0 28 -21 57
-33 45 -4 -4 -11 4 -16 17 -6 13 -26 42 -46 64 -20 22 -41 50 -46 63 -4 12
-16 22 -24 22 -25 0 -85 -28 -85 -39 0 -6 -7 -11 -15 -11 -24 0 -17 25 14 47
20 16 31 35 38 72 7 34 7 53 0 60 -7 7 -7 19 1 36 18 39 15 59 -14 76 -24 15
-23 15 37 11 53 -4 70 -11 132 -53z m1697 36 c0 -32 -39 -51 -56 -29 -6 8 -19
14 -28 14 -46 0 8 38 57 39 22 1 27 -3 27 -24z m295 -95 c3 -5 2 -10 -4 -10
-5 0 -13 5 -16 10 -3 6 -2 10 4 10 5 0 13 -4 16 -10z m-2287 -187 c7 -12 12
-32 12 -45 0 -13 10 -43 21 -68 21 -46 105 -176 120 -186 5 -3 9 -13 9 -22 0
-10 7 -28 17 -41 15 -22 17 -22 28 -7 10 13 18 14 39 6 15 -5 40 -10 56 -10
16 0 32 -4 35 -10 10 -17 137 -11 218 9 89 23 114 35 223 107 48 31 94 54 115
56 29 3 34 6 31 26 -3 18 31 92 43 92 9 0 142 -53 175 -70 47 -24 127 -78 135
-91 4 -5 -1 -12 -9 -15 -9 -3 -16 -12 -16 -20 0 -8 -4 -14 -10 -14 -5 0 -10
-6 -10 -14 0 -7 -9 -25 -20 -39 -11 -14 -20 -32 -20 -41 0 -24 -134 -153 -178
-172 -96 -41 -156 -56 -207 -50 -27 3 -99 8 -160 11 -221 11 -342 62 -480 200
-68 69 -99 109 -128 166 -40 82 -76 206 -72 254 1 17 3 50 5 75 l3 45 7 -55
c4 -31 12 -65 18 -77z m2073 44 c9 -17 20 -19 81 -16 113 6 94 -30 -36 -68
-28 -8 -87 -30 -131 -50 -113 -49 -129 -57 -138 -68 -5 -5 -5 1 -1 15 6 25 18
43 63 93 14 15 26 37 28 48 9 57 110 91 134 46z m-1556 -47 c3 -5 2 -10 -4
-10 -5 0 -13 5 -16 10 -3 6 -2 10 4 10 5 0 13 -4 16 -10z m1613 -154 c14 -14
17 -53 11 -140 l-4 -49 -55 -19 c-30 -10 -95 -27 -144 -38 -76 -16 -101 -18
-165 -9 -79 11 -100 18 -120 43 -9 10 -9 20 -2 34 7 13 7 22 -1 30 -9 9 -3 12
24 12 20 0 40 5 43 10 3 6 13 10 21 10 8 0 28 16 45 35 17 19 42 38 55 41 13
3 24 10 24 15 0 9 83 35 135 42 47 7 119 -3 133 -17z m-1848 -36 c0 -5 -7 -10
-15 -10 -8 0 -15 5 -15 10 0 6 7 10 15 10 8 0 15 -4 15 -10z m420 0 c0 -9 -40
-30 -56 -30 -13 0 -1 18 19 28 29 14 37 14 37 2z m1065 -9 c6 -11 -44 -61 -62
-61 -33 0 -2 40 54 69 1 1 4 -3 8 -8z m-1355 -31 c8 -5 11 -12 8 -16 -10 -9
-58 4 -58 16 0 13 30 13 50 0z m150 -10 c0 -5 -12 -10 -26 -10 -14 0 -23 4
-19 10 3 6 15 10 26 10 10 0 19 -4 19 -10z m840 -107 c13 -12 13 -13 -5 -7
-11 4 -29 14 -40 22 -19 13 -19 14 5 7 14 -4 32 -14 40 -22z m1268 -12 c30
-16 28 -32 -11 -83 -18 -24 -51 -70 -74 -103 -64 -94 -74 -101 -131 -87 -26 7
-64 14 -86 17 -33 4 -155 61 -179 85 -14 13 -15 64 -2 90 14 27 55 42 160 60
33 5 79 15 103 23 51 16 189 15 220 -2z m-1166 -60 c38 -37 48 -61 25 -61 -7
0 -29 25 -49 55 -39 60 -33 61 24 6z m-106 -76 c-4 -36 -3 -65 2 -65 5 0 21
14 36 31 34 38 59 34 107 -14 19 -19 41 -36 49 -40 12 -4 8 -11 -15 -31 l-30
-26 28 0 c15 0 27 5 27 10 0 17 28 11 48 -10 14 -15 36 -22 88 -26 38 -3 87
-9 109 -12 33 -6 46 -3 74 15 40 27 63 30 54 7 -4 -11 15 -36 61 -80 36 -36
77 -87 91 -115 l26 -50 -28 14 c-39 20 -207 30 -477 29 -247 -1 -274 3 -344
58 l-27 21 -17 -21 c-10 -12 -18 -29 -18 -37 0 -25 -29 -71 -49 -78 -10 -3
-21 -14 -24 -25 -5 -20 -11 -24 -59 -34 -16 -4 -27 -10 -25 -15 4 -14 -53 -61
-74 -61 -28 0 -25 -38 4 -45 102 -23 379 -75 400 -75 14 0 28 -4 32 -9 3 -5
19 -12 36 -16 17 -4 28 -9 26 -12 -3 -2 -22 0 -44 7 -21 6 -84 15 -140 20
-109 10 -328 57 -405 88 l-48 18 33 35 c40 40 105 81 117 74 5 -3 19 9 32 27
12 18 52 61 89 95 37 34 64 64 61 67 -3 3 2 6 11 6 9 0 17 4 17 10 0 18 63 81
76 76 9 -3 17 8 24 34 6 22 15 40 20 40 16 0 33 41 22 52 -11 11 -42 -27 -42
-53 0 -9 -7 -22 -15 -29 -13 -11 -15 -8 -15 14 0 14 5 26 10 26 6 0 10 7 10
16 0 17 69 154 78 154 2 0 2 -29 -2 -65z m625 -53 c-6 -11 -23 -19 -48 -20
-158 -12 -173 -10 -173 13 0 21 57 46 135 59 69 13 70 12 83 -11 9 -16 10 -29
3 -41z m-268 41 c20 -3 37 -8 37 -12 0 -8 -106 -51 -125 -51 -18 0 -18 -1 1
45 11 28 19 35 32 30 9 -4 34 -9 55 -12z m-5112 -55 c22 -28 25 -45 3 -28 -17
15 -38 50 -28 50 3 0 14 -10 25 -22z m2219 0 c36 -5 103 -28 150 -50 71 -34
100 -55 175 -132 50 -50 105 -116 123 -148 73 -124 108 -285 91 -419 -19 -155
-103 -318 -212 -412 -81 -69 -98 -79 -187 -110 -232 -80 -481 -19 -668 165
-126 124 -202 308 -202 488 0 213 90 404 241 512 85 60 131 83 209 102 108 26
144 27 280 4z m-2173 -125 c-3 -10 -5 -4 -5 12 0 17 2 24 5 18 2 -7 2 -21 0
-30z m93 -44 c0 -4 24 -49 53 -100 29 -52 66 -121 81 -154 15 -33 30 -62 34
-65 5 -3 19 -23 32 -45 13 -22 43 -63 66 -91 39 -49 154 -227 154 -240 0 -18
137 -198 181 -238 43 -39 48 -47 33 -52 -38 -11 -85 -34 -126 -61 -24 -15 -70
-33 -102 -40 -33 -7 -99 -31 -147 -54 -70 -33 -91 -40 -102 -30 -8 6 -22 9
-31 5 -13 -5 -16 2 -16 41 0 54 -15 53 -23 -2 -3 -21 -10 -51 -16 -67 l-12
-29 -35 57 c-44 70 -77 88 -161 87 -52 0 -64 3 -59 14 3 8 1 17 -5 20 -5 4 -8
2 -7 -3 4 -13 -16 -16 -20 -4 -1 5 3 16 11 24 20 20 31 57 28 98 -4 61 26 240
43 259 9 10 16 32 16 49 0 18 20 70 45 119 l45 88 -2 145 c-1 80 -1 186 0 235
l2 90 20 -25 c11 -14 20 -28 20 -31z m5515 -88 c17 -38 15 -78 -4 -67 -8 5
-51 90 -51 101 0 3 8 5 18 5 12 0 25 -14 37 -39z m-1580 -444 c13 -37 22 -73
19 -80 -3 -7 -30 -32 -61 -57 -31 -25 -74 -60 -97 -78 -23 -19 -62 -48 -88
-65 -26 -18 -78 -53 -115 -78 -38 -25 -92 -60 -120 -78 -29 -18 -50 -37 -47
-42 3 -5 0 -9 -5 -9 -6 0 -11 5 -11 10 0 6 -7 10 -16 10 -8 0 -14 6 -12 14 11
48 493 531 521 523 5 -1 19 -33 32 -70z m-2599 42 c6 -11 -30 -49 -85 -88 -27
-19 -61 -20 -61 -1 0 14 74 55 94 51 13 -2 17 2 13 12 -10 25 25 49 39 26z
m2771 -53 c59 -29 137 -66 173 -81 36 -15 79 -38 97 -51 17 -13 38 -21 46 -19
7 3 20 -1 27 -10 11 -13 8 -15 -23 -15 -19 0 -40 6 -46 14 -7 8 -35 20 -64 26
-29 7 -95 34 -148 61 -53 26 -100 45 -103 42 -3 -4 -6 -2 -6 3 0 5 -9 10 -19
11 -14 1 -21 -6 -24 -25 -2 -15 -3 -11 -2 9 3 44 -10 69 -35 69 -10 0 -22 5
-25 10 -16 25 54 5 152 -44z m-2988 -95 c15 -9 12 -12 -140 -116 -113 -78
-159 -106 -159 -97 0 4 12 18 28 30 58 48 247 191 252 191 3 1 11 -3 19 -8z
m2928 -26 c6 -20 7 -35 2 -35 -5 0 -9 9 -9 19 0 11 -4 23 -10 26 -12 7 -13 25
-2 25 5 0 13 -16 19 -35z m75 -429 c15 -8 41 -17 59 -21 21 -5 27 -10 19 -15
-10 -6 -8 -9 6 -13 16 -4 16 -5 -3 -6 -13 0 -23 4 -23 9 0 6 -9 10 -20 10 -11
0 -20 -4 -20 -10 0 -5 -4 -10 -10 -10 -5 0 -10 7 -10 15 0 8 -7 15 -15 15 -8
0 -15 2 -15 4 0 2 -3 11 -6 20 -8 20 3 20 38 2z m-4396 -103 c-10 -10 -19 5
-10 18 6 11 8 11 12 0 2 -7 1 -15 -2 -18z m4420 9 c-5 -8 -66 -4 -66 4 0 2 16
4 36 4 19 0 33 -4 30 -8z"/>
<path d="M3817 6544 c-3 -5 1 -15 9 -22 16 -14 18 -5 5 17 -5 7 -11 9 -14 5z"/>
<path d="M9803 6138 c2 -7 12 -13 22 -13 10 0 20 6 23 13 2 7 -6 12 -23 12
-17 0 -25 -5 -22 -12z"/>
<path d="M9627 6064 c-13 -13 -7 -23 13 -21 11 1 19 6 17 11 -4 13 -21 18 -30
10z"/>
<path d="M9968 5981 c12 -11 22 -26 22 -35 0 -9 7 -16 15 -16 8 0 15 8 15 18
0 24 -31 52 -56 52 -18 -1 -17 -2 4 -19z"/>
<path d="M9776 5812 c-3 -6 -1 -14 5 -17 15 -10 25 3 12 16 -7 7 -13 7 -17 1z"/>
<path d="M9305 5679 c-10 -15 1 -23 20 -15 9 3 13 10 10 16 -8 13 -22 13 -30
-1z"/>
<path d="M10550 5650 c-9 -18 -2 -21 92 -50 57 -17 108 -33 115 -35 19 -6 26
14 12 32 -11 13 -10 17 6 29 10 8 27 14 37 14 10 0 18 7 18 15 0 13 -22 15
-135 15 -123 0 -135 -2 -145 -20z m180 -26 c0 -13 -7 -15 -37 -9 -58 10 -64
25 -10 25 37 0 47 -4 47 -16z"/>
<path d="M10397 5573 c-13 -12 -7 -23 12 -23 10 0 21 7 25 15 5 15 -24 22 -37
8z"/>
<path d="M9180 5560 c-13 -8 -12 -10 3 -10 9 0 17 5 17 10 0 12 -1 12 -20 0z"/>
<path d="M9331 5522 c-7 -14 -6 -24 4 -38 13 -19 14 -19 21 1 4 11 9 23 10 26
2 4 -3 12 -10 19 -12 9 -17 7 -25 -8z"/>
<path d="M10500 5513 c0 -5 12 -9 27 -10 19 -1 22 1 12 8 -17 11 -39 12 -39 2z"/>
<path d="M10640 5492 c0 -5 15 -12 33 -15 54 -8 53 8 -1 19 -19 4 -32 2 -32
-4z"/>
<path d="M10364 5242 l-12 -31 47 -11 c58 -13 184 -29 191 -23 9 8 -26 23 -57
23 -18 0 -33 4 -33 9 0 4 -8 8 -17 7 -10 0 -37 3 -60 7 -32 5 -42 12 -45 28
-3 19 -5 17 -14 -9z"/>
<path d="M10331 5157 c-19 -19 -12 -26 37 -33 115 -17 167 -31 170 -47 6 -31
-29 -35 -132 -15 -81 16 -100 17 -107 6 -5 -7 -9 -16 -9 -19 0 -6 197 -43 224
-41 24 1 25 3 41 49 17 49 5 70 -43 78 -20 4 -67 12 -104 19 -47 9 -70 10 -77
3z"/>
<path d="M11046 5055 c-19 -43 -20 -64 -6 -99 16 -42 37 -32 49 24 9 43 8 54
-8 81 l-20 32 -15 -38z"/>
<path d="M10270 4969 c-6 -23 -8 -45 -3 -49 7 -6 173 -38 223 -43 9 -1 15 6
15 18 0 16 -8 21 -40 25 -54 8 -63 15 -57 45 6 32 -11 32 -26 0 -13 -27 -27
-30 -67 -15 -21 8 -24 14 -19 35 4 15 2 25 -5 25 -5 0 -15 -19 -21 -41z"/>
<path d="M11070 4880 c0 -5 5 -10 11 -10 5 0 7 5 4 10 -3 6 -8 10 -11 10 -2 0
-4 -4 -4 -10z"/>
<path d="M11062 4840 c0 -14 2 -19 5 -12 2 6 2 18 0 25 -3 6 -5 1 -5 -13z"/>
<path d="M10465 4820 c-8 -25 -29 -25 -135 -4 -61 12 -84 14 -93 5 -7 -7 -8
-14 -1 -21 12 -12 232 -55 240 -47 4 3 10 24 14 47 5 30 4 40 -6 40 -7 0 -16
-9 -19 -20z"/>
<path d="M10550 4760 c0 -13 11 -13 30 0 12 8 11 10 -7 10 -13 0 -23 -4 -23
-10z"/>
<path d="M10222 4733 c2 -12 27 -22 100 -37 103 -22 123 -32 108 -55 -7 -12
-23 -12 -107 4 -54 10 -102 18 -108 19 -5 0 -10 -8 -10 -19 0 -13 9 -21 30
-26 142 -31 186 -38 199 -33 19 7 40 77 31 104 -7 22 -11 23 -117 44 -102 21
-130 21 -126 -1z"/>
<path d="M10540 4720 c-8 -14 -8 -20 0 -20 12 0 40 24 40 34 0 15 -30 4 -40
-14z"/>
<path d="M10538 4673 c7 -3 16 -2 19 1 4 3 -2 6 -13 5 -11 0 -14 -3 -6 -6z"/>
<path d="M10520 4630 c-8 -15 -8 -20 3 -20 14 0 37 19 37 32 0 16 -30 7 -40
-12z"/>
<path d="M10190 4564 c-20 -51 -11 -82 27 -103 36 -19 64 -13 104 24 31 28 43
33 61 26 34 -12 29 -36 -7 -36 -23 -1 -31 -6 -33 -22 -3 -17 4 -22 35 -28 31
-6 40 -3 55 15 36 44 9 120 -41 120 -11 0 -27 3 -35 6 -11 4 -28 -6 -50 -31
-36 -39 -78 -46 -84 -12 -3 13 3 17 27 17 19 0 31 5 31 13 0 21 -22 37 -52 37
-21 0 -31 -6 -38 -26z"/>
<path d="M10506 4581 c-3 -5 0 -12 6 -14 7 -3 4 -6 -7 -6 -17 -1 -17 -3 -5
-11 25 -16 42 -12 38 12 -3 23 -23 35 -32 19z"/>
<path d="M10489 4485 c-1 -19 -2 -44 -2 -55 -1 -11 2 -20 6 -20 4 0 15 0 25 0
16 0 19 9 21 55 1 53 0 55 -24 55 -22 0 -25 -5 -26 -35z"/>
<path d="M10291 3804 c0 -11 3 -14 6 -6 3 7 2 16 -1 19 -3 4 -6 -2 -5 -13z"/>
<path d="M5955 5410 c-3 -5 -2 -10 4 -10 5 0 13 5 16 10 3 6 2 10 -4 10 -5 0
-13 -4 -16 -10z"/>
<path d="M3736 4995 c-4 -11 1 -15 18 -15 33 0 57 10 50 21 -9 15 -61 10 -68
-6z"/>
<path d="M3840 4976 c0 -2 7 -7 16 -10 8 -3 12 -2 9 4 -6 10 -25 14 -25 6z"/>
<path d="M3207 4884 c-4 -4 -7 -18 -7 -31 0 -12 -6 -24 -12 -24 -46 -4 -88
-29 -88 -50 0 -16 4 -17 26 -9 14 6 36 10 49 10 33 0 58 42 48 81 -5 17 -12
27 -16 23z"/>
<path d="M3707 4749 c12 -12 25 -20 28 -17 3 3 -7 13 -22 23 l-28 17 22 -23z"/>
<path d="M3755 4710 c6 -9 38 -25 104 -51 21 -8 22 -8 11 6 -7 8 -20 15 -30
15 -9 0 -29 9 -43 20 -26 21 -53 27 -42 10z"/>
<path d="M3150 4600 c0 -5 5 -10 10 -10 6 0 10 5 10 10 0 6 -4 10 -10 10 -5 0
-10 -4 -10 -10z"/>
<path d="M3553 4364 c-18 -9 -33 -23 -33 -30 0 -8 -9 -14 -19 -14 -21 0 -36
-15 -24 -23 21 -13 233 59 233 78 0 13 -128 3 -157 -11z"/>
<path d="M3207 4299 c-29 -44 -32 -55 -17 -64 19 -12 49 16 56 51 10 54 -8 61
-39 13z"/>
<path d="M2905 4150 c3 -5 8 -10 11 -10 2 0 4 5 4 10 0 6 -5 10 -11 10 -5 0
-7 -4 -4 -10z"/>
<path d="M8156 3819 c-27 -11 -69 -37 -93 -59 -27 -23 -60 -42 -82 -46 -61
-11 -133 -64 -86 -64 24 0 17 -33 -12 -56 -31 -24 -24 -46 8 -26 30 19 41 5
24 -28 -8 -16 -15 -37 -14 -47 0 -16 2 -15 15 4 9 12 26 33 39 47 13 14 38 56
57 93 57 115 136 173 240 173 44 0 49 2 38 15 -17 20 -74 17 -134 -6z"/>
<path d="M8193 3609 c-39 -21 -83 -50 -97 -64 -14 -14 -32 -25 -41 -25 -8 0
-15 -4 -15 -9 0 -5 -10 -11 -22 -13 -31 -4 -36 -44 -9 -69 12 -11 21 -24 21
-29 0 -6 7 -10 15 -10 23 0 85 32 79 42 -3 4 3 11 13 15 28 10 97 75 103 97 4
15 15 20 40 21 47 1 60 11 60 46 0 24 -4 29 -24 29 -13 0 -30 2 -38 4 -7 2
-45 -14 -85 -35z"/>
<path d="M7826 3515 c-20 -31 -20 -35 3 -35 24 0 45 25 37 45 -8 22 -21 19
-40 -10z"/>
<path d="M8920 3525 c7 -9 15 -13 17 -11 7 7 -7 26 -19 26 -6 0 -6 -6 2 -15z"/>
<path d="M9037 3463 c-17 -16 -4 -44 35 -72 23 -17 48 -31 55 -31 18 0 16 27
-2 34 -9 3 -25 21 -36 41 -20 33 -38 43 -52 28z"/>
<path d="M9088 3313 c7 -3 16 -2 19 1 4 3 -2 6 -13 5 -11 0 -14 -3 -6 -6z"/>
<path d="M9110 3224 c0 -8 5 -12 10 -9 6 3 10 10 10 16 0 5 -4 9 -10 9 -5 0
-10 -7 -10 -16z"/>
<path d="M9095 3189 c-4 -6 0 -16 8 -22 8 -7 17 -24 21 -39 4 -16 13 -28 22
-28 14 0 14 -3 4 -15 -10 -12 -10 -15 3 -15 20 0 31 17 16 25 -5 4 -8 13 -5
21 3 8 -1 17 -10 21 -8 3 -13 12 -10 19 13 33 -31 63 -49 33z"/>
<path d="M9182 3058 c-30 -30 -2 -54 35 -30 19 12 20 16 8 28 -17 17 -27 18
-43 2z"/>
<path d="M9500 2620 c-17 -10 -8 -23 20 -27 22 -3 23 -2 14 21 -7 18 -13 19
-34 6z"/>
<path d="M8560 2589 c0 -5 5 -7 10 -4 6 3 10 8 10 11 0 2 -4 4 -10 4 -5 0 -10
-5 -10 -11z"/>
<path d="M9507 2463 c-15 -15 -5 -23 28 -23 36 0 47 13 19 24 -20 8 -39 8 -47
-1z"/>
<path d="M1800 3390 c0 -5 9 -19 20 -30 22 -22 40 -26 40 -10 0 6 -7 10 -16
10 -9 0 -18 9 -21 20 -5 20 -23 28 -23 10z"/>
<path d="M5950 1424 c-204 -53 -354 -205 -405 -410 -14 -55 -14 -68 2 -150 10
-49 17 -117 17 -151 -1 -45 2 -60 11 -57 7 3 44 -25 81 -62 38 -36 78 -67 89
-69 12 -1 21 -10 23 -22 2 -15 13 -23 38 -27 19 -4 50 -16 69 -27 18 -11 42
-19 52 -17 12 2 19 -4 21 -19 3 -23 32 -33 32 -11 0 7 7 5 18 -4 25 -23 91
-31 142 -18 25 6 70 16 100 21 31 6 76 24 105 43 27 18 67 43 87 55 54 32 113
103 136 164 45 119 65 215 59 283 -7 77 -3 94 25 86 17 -4 19 -2 13 19 -4 13
-22 40 -40 59 -18 19 -44 53 -58 76 -63 102 -188 195 -319 235 -73 23 -217 24
-298 3z m155 -54 c3 -5 2 -10 -4 -10 -5 0 -13 5 -16 10 -3 6 -2 10 4 10 5 0
13 -4 16 -10z m40 -102 c6 -12 24 -26 40 -31 17 -5 39 -18 50 -27 28 -25 93
-60 111 -60 8 0 19 -11 24 -25 5 -14 21 -36 36 -50 21 -19 28 -42 43 -126 16
-91 17 -107 4 -153 -13 -45 -36 -104 -51 -130 -2 -4 5 -5 17 -1 41 13 20 -32
-28 -60 -11 -6 -13 -2 -8 21 l5 29 -35 -39 c-28 -30 -33 -40 -22 -47 20 -13
-28 -52 -55 -45 -11 3 -26 0 -33 -5 -7 -6 -28 -11 -47 -11 -27 0 -33 -3 -29
-15 5 -14 3 -13 -18 0 -27 18 -69 12 -69 -9 0 -9 -11 -14 -29 -14 -34 0 -51
18 -30 31 9 6 0 9 -28 9 -24 0 -43 -5 -46 -12 -6 -19 -61 3 -65 26 -3 15 1 18
22 14 25 -5 26 -4 10 13 -9 10 -13 22 -10 28 7 12 -38 44 -63 46 -20 2 -48 27
-74 68 -21 32 -37 35 -44 7 -11 -43 -38 -14 -39 42 0 28 4 38 19 42 17 4 18
10 12 43 -4 21 -6 65 -4 98 1 33 3 74 3 92 1 23 8 36 25 45 32 17 111 122 117
155 3 15 7 30 10 35 8 12 88 10 101 -3 8 -8 16 -6 29 9 14 17 20 18 35 9 15
-9 22 -8 36 6 25 24 66 22 78 -5z m-478 -180 c-3 -8 -6 -5 -6 6 -1 11 2 17 5
13 3 -3 4 -12 1 -19z m841 -66 c2 -7 -3 -12 -12 -12 -9 0 -16 7 -16 16 0 17
22 14 28 -4z m-868 -62 c0 -5 -2 -10 -4 -10 -3 0 -8 5 -11 10 -3 6 -1 10 4 10
6 0 11 -4 11 -10z m880 -75 c0 -14 -7 -28 -15 -32 -23 -8 -27 1 -16 31 13 33
31 34 31 1z m-24 -127 c-3 -13 -6 -26 -6 -30 0 -12 -40 -9 -40 3 0 21 21 49
37 49 11 0 14 -6 9 -22z m-681 -168 c18 -19 17 -20 -1 -20 -20 0 -44 17 -44
32 0 15 27 8 45 -12z"/>
<path d="M10465 7060 c-17 -18 -17 -20 -1 -20 9 0 19 7 23 15 9 25 -2 27 -22
5z"/>
<path d="M9770 6712 c-44 -22 -126 -82 -114 -82 20 -1 122 56 138 78 20 27 20
27 -24 4z"/>
<path d="M10731 6647 c-6 -8 -8 -16 -5 -20 10 -9 34 4 34 19 0 18 -14 18 -29
1z"/>
<path d="M11082 6098 c3 -7 13 -15 22 -16 12 -3 17 1 14 10 -3 7 -13 15 -22
16 -12 3 -17 -1 -14 -10z"/>
<path d="M11060 6054 c0 -8 5 -12 10 -9 6 3 10 10 10 16 0 5 -4 9 -10 9 -5 0
-10 -7 -10 -16z"/>
<path d="M8754 5919 c-7 -13 37 -22 49 -10 6 6 9 11 7 12 -29 5 -52 4 -56 -2z"/>
<path d="M267 2633 c-16 -15 -5 -24 25 -21 41 4 50 28 11 28 -17 0 -33 -3 -36
-7z"/>
</g>
</svg>
