<?xml version="1.0" standalone="no"?>
<!DOCTYPE svg PUBLIC "-//W3C//DTD SVG 20010904//EN"
 "http://www.w3.org/TR/2001/REC-SVG-20010904/DTD/svg10.dtd">
<svg version="1.0" xmlns="http://www.w3.org/2000/svg"
 width="1280.000000pt" height="720.000000pt" viewBox="0 0 1280.000000 720.000000"
 preserveAspectRatio="xMidYMid meet">

<g transform="translate(0.000000,720.000000) scale(0.100000,-0.100000)"
fill="#000000" stroke="none">
<path d="M0 3600 l0 -3600 6400 0 6400 0 0 600 0 600 -32 1 c-61 3 -66 4 -74
11 -4 5 -46 8 -93 9 -47 0 -138 4 -201 8 -93 7 -120 6 -143 -6 -15 -7 -25 -18
-22 -24 4 -5 11 -7 16 -3 5 3 8 2 7 -3 -3 -8 26 -85 43 -113 44 -74 58 -113
62 -168 5 -73 -4 -71 -48 10 -16 29 -37 62 -48 73 -10 11 -26 34 -34 50 -9 17
-19 32 -23 35 -5 3 -19 25 -32 50 -13 25 -38 65 -56 89 -18 24 -32 48 -32 53
0 5 -16 30 -35 55 -19 25 -35 51 -35 58 0 6 -11 25 -25 41 -13 15 -30 42 -37
59 -7 16 -25 48 -40 69 -15 21 -28 43 -28 49 0 5 -15 30 -33 56 -18 25 -38 58
-45 74 -6 15 -15 27 -20 27 -4 0 -16 17 -27 38 -10 20 -32 58 -48 84 l-30 47
-31 -16 c-50 -26 -59 -28 -98 -25 -49 4 -51 30 -6 65 22 18 35 40 43 72 12 46
12 46 -29 98 -22 29 -47 57 -55 63 -13 10 -13 24 -3 100 7 49 23 127 37 174
35 120 33 132 -20 188 -25 26 -48 54 -50 63 -4 11 -13 15 -25 12 -12 -3 -20 0
-20 6 0 7 5 9 11 5 8 -5 8 -1 0 12 -19 34 -38 54 -50 54 -6 0 -11 5 -11 10 0
6 -9 20 -20 32 -11 12 -20 29 -20 38 0 23 -20 40 -38 33 -12 -5 -14 -1 -10 20
3 15 1 27 -4 27 -5 0 -6 5 -2 12 4 6 0 16 -8 22 -21 16 -27 38 -16 60 12 22
40 21 578 -19 686 -52 878 -65 924 -65 l36 0 0 160 c0 121 -3 160 -12 160 -7
0 -107 7 -223 14 -115 8 -264 17 -330 20 -66 3 -352 18 -635 32 l-515 26 -55
58 c-30 31 -62 61 -70 66 -20 12 -184 203 -199 232 -7 13 -28 30 -47 38 -50
21 -43 36 14 30 26 -3 97 -8 157 -11 182 -8 574 -35 840 -55 324 -26 864 -67
983 -75 l92 -6 0 204 0 204 -92 6 c-51 4 -347 18 -658 32 -724 32 -916 42
-1240 60 -365 21 -731 37 -940 40 -96 2 -206 9 -244 17 -77 15 -87 27 -84 103
1 29 -7 61 -24 95 -24 48 -31 120 -13 138 14 14 497 -2 790 -28 61 -5 171 -12
245 -15 74 -3 155 -8 180 -10 25 -3 77 -7 115 -9 39 -2 196 -11 350 -20 154
-9 318 -21 365 -26 73 -9 156 -17 495 -44 33 -3 170 -12 305 -20 135 -9 291
-19 348 -22 l102 -7 0 200 0 200 -62 7 c-35 3 -175 11 -313 16 -137 5 -286 12
-330 15 -44 3 -228 9 -410 15 -376 12 -333 9 -1830 89 -340 18 -347 19 -440
61 -30 13 -85 18 -85 8 0 -5 -11 4 -25 20 -14 17 -25 32 -25 35 0 4 -14 35
-31 71 l-31 65 26 32 c14 17 24 35 20 40 -8 13 7 11 36 -6 36 -20 87 -18 150
7 70 27 261 35 481 19 85 -6 224 -16 309 -22 215 -14 589 -54 750 -80 225 -37
416 -49 820 -54 282 -3 422 -8 836 -33 66 -4 128 -6 137 -4 16 3 17 83 17
1073 l0 1069 -6400 0 -6400 0 0 -3600z m12315 2880 c46 -1 52 -4 74 -38 23
-36 24 -39 12 -132 -15 -118 -31 -268 -36 -340 -12 -179 -29 -328 -38 -352 -7
-17 -21 -28 -40 -32 -50 -10 -56 -7 -83 35 -19 30 -31 40 -44 36 -25 -6 -34
35 -25 106 4 28 9 103 10 167 1 63 6 147 10 185 9 82 8 96 -1 198 -6 71 -5 81
15 107 11 16 21 34 21 40 0 13 39 29 60 24 8 -1 38 -3 65 -4z m-4515 -440 c0
-6 9 -30 21 -55 11 -24 17 -50 13 -57 -5 -9 -4 -10 4 -3 6 6 12 21 15 35 2 14
3 -10 2 -52 -2 -78 -2 -78 24 -79 19 -1 15 -3 -14 -10 -72 -15 -72 -15 -80 50
-5 41 -3 65 6 79 11 18 10 24 -4 39 -10 12 -14 27 -10 41 5 22 23 31 23 12z
m-20 -75 c0 -8 -4 -17 -10 -20 -6 -4 -10 5 -10 20 0 15 4 24 10 20 6 -3 10
-12 10 -20z m1900 -10 c19 -1 157 -5 305 -9 272 -8 414 -22 493 -49 23 -8 51
-13 61 -10 10 3 33 -3 51 -12 18 -9 52 -18 76 -20 43 -3 65 -16 77 -47 3 -10
19 -20 34 -23 15 -4 44 -13 63 -20 19 -7 102 -18 184 -24 100 -7 154 -15 165
-24 9 -8 33 -17 54 -21 37 -7 51 -31 23 -42 -8 -3 -14 -22 -14 -51 -2 -69 -9
-83 -45 -85 -55 -3 -140 0 -207 7 -36 3 -231 12 -435 20 -203 8 -415 19 -470
25 -55 6 -197 15 -315 18 -118 4 -220 10 -226 14 -6 4 -71 12 -145 18 -74 6
-172 20 -219 31 -47 11 -95 22 -107 25 -13 2 -23 9 -23 16 0 6 -7 16 -16 23
-23 17 -11 65 16 65 11 0 28 9 37 20 10 11 36 22 62 26 24 4 59 16 77 26 19
11 38 17 43 14 5 -4 9 7 9 23 -2 78 50 87 392 66z m-2140 -250 c-7 -8 -9 -15
-4 -15 5 0 8 -38 6 -86 -3 -67 0 -91 13 -111 13 -20 16 -37 10 -79 -3 -30 -11
-54 -16 -54 -5 0 -9 -16 -9 -36 0 -28 -7 -43 -27 -60 -34 -29 -30 -28 -78 -5
-26 12 -46 33 -65 67 -26 48 -28 49 -106 70 -44 11 -103 24 -130 27 l-49 6 53
-20 c57 -22 66 -34 76 -94 18 -117 15 -113 93 -145 32 -13 119 -55 193 -94 74
-39 154 -79 177 -91 24 -11 43 -23 43 -28 0 -14 -55 5 -200 70 -80 35 -184 80
-232 100 -103 43 -115 60 -117 165 -1 39 -32 62 -114 87 -98 29 -120 27 -151
-10 -14 -17 -26 -27 -26 -23 0 4 -11 -4 -23 -18 -13 -14 -34 -31 -47 -38 -25
-14 -27 -12 -171 146 -19 21 -55 56 -78 76 -24 20 -40 42 -36 48 4 6 3 9 -2 8
-14 -5 -82 63 -77 77 3 7 1 16 -5 19 -6 4 -8 13 -4 22 4 11 9 12 19 3 8 -6 14
-18 14 -25 0 -19 39 -18 46 1 9 21 41 19 54 -4 5 -11 10 -32 10 -47 0 -27 24
-64 42 -64 4 0 16 -8 26 -17 10 -10 45 -43 78 -74 32 -31 67 -66 76 -78 17
-20 53 -29 60 -13 10 23 86 72 112 72 20 0 45 14 80 43 115 97 232 165 350
201 48 15 93 25 100 23 7 -3 19 -1 27 4 20 13 23 11 9 -6z m-647 -544 c25 -12
49 -21 52 -21 19 0 46 -44 55 -90 5 -29 10 -54 10 -56 0 -3 39 -23 88 -45 331
-157 462 -227 462 -249 0 -10 -3 -11 -8 -4 -4 6 -20 10 -35 8 -29 -3 -56 7
-172 60 -136 64 -197 88 -203 81 -4 -3 0 -10 7 -14 9 -6 10 -11 2 -15 -6 -4
-11 -3 -11 2 0 13 -44 24 -64 16 -9 -3 -16 -11 -16 -16 0 -6 6 -8 13 -5 8 3
14 -4 15 -17 1 -19 -3 -22 -27 -18 -25 3 -28 1 -27 -20 1 -13 7 -22 15 -20 7
1 19 -3 27 -9 8 -6 14 -8 14 -3 0 5 10 -5 23 -20 12 -16 31 -40 42 -52 11 -13
31 -39 45 -58 14 -20 32 -35 40 -35 22 0 52 26 66 57 12 26 12 25 13 -20 1
-27 6 -48 11 -48 14 0 30 45 30 85 0 19 5 37 10 40 8 5 7 11 -1 21 -16 20 -5
28 21 14 13 -7 19 -17 16 -28 -10 -30 -8 -106 3 -142 6 -19 11 -61 11 -92 0
-47 -4 -59 -20 -68 -10 -6 -17 -17 -14 -24 8 -20 -29 -29 -59 -15 -37 17 -54
6 -68 -43 -17 -62 -15 -77 22 -150 7 -13 3 -22 -16 -34 -53 -34 -14 -24 54 15
81 46 195 101 207 101 5 0 -44 -31 -108 -68 -208 -119 -277 -162 -297 -183
-18 -20 -30 -58 -37 -124 -2 -16 -10 -61 -18 -100 -9 -38 -16 -85 -16 -103 0
-43 -16 -72 -39 -72 -20 0 -136 -42 -181 -65 -15 -8 -30 -11 -34 -8 -6 7 22
43 34 43 4 0 24 7 45 15 29 13 34 19 25 30 -25 30 23 70 76 65 45 -5 54 0 54
28 0 24 -8 33 -47 53 -27 13 -51 28 -54 33 -4 5 -26 19 -50 31 -38 19 -44 26
-42 51 2 16 5 72 7 124 5 92 4 96 -21 122 -15 16 -33 28 -40 28 -7 0 -13 5
-13 10 0 15 -16 12 -34 -5 -12 -12 -13 -22 -6 -41 6 -14 10 -26 10 -27 0 -1
-15 -3 -34 -4 -31 -3 -35 0 -41 30 -4 17 -11 37 -15 42 -15 20 -30 112 -39
235 -10 142 -5 221 14 214 8 -3 15 8 19 30 4 19 11 38 16 41 6 4 10 -61 10
-173 0 -99 3 -200 6 -226 l7 -46 32 49 c31 47 33 56 37 152 2 70 7 104 16 107
6 2 12 12 12 22 0 10 6 20 14 23 23 9 56 -4 56 -22 0 -9 4 -22 9 -30 7 -11 13
-6 27 20 14 26 19 58 19 139 1 114 9 154 34 185 38 47 39 56 14 137 l-23 76
-67 22 c-36 12 -88 24 -115 27 -54 6 -61 20 -27 54 18 18 30 21 74 16 29 -3
73 -15 98 -26z m-206 -214 c-10 -34 -26 -93 -36 -132 -9 -38 -23 -80 -29 -92
-7 -12 -12 -38 -12 -59 0 -20 -9 -51 -20 -70 -12 -19 -23 -57 -25 -91 -3 -32
-9 -87 -13 -123 -14 -111 -26 -27 -18 125 10 204 39 333 101 456 47 93 79 84
52 -14z m-401 -359 c-4 -205 -14 -497 -22 -648 -8 -151 -21 -385 -27 -520 -11
-233 -13 -246 -34 -268 -52 -51 -67 -15 -54 131 6 62 16 211 21 332 10 200 36
527 75 915 7 80 19 209 26 288 7 78 15 142 17 142 3 0 2 -168 -2 -372z m1320
357 c17 -13 17 -15 2 -16 -10 -1 -24 -2 -30 -3 -19 -2 -21 -41 -4 -55 18 -15
56 5 56 31 0 12 8 16 30 16 17 -1 30 -5 30 -10 0 -5 -4 -6 -10 -3 -5 3 -10 -1
-10 -9 0 -8 -10 -22 -22 -30 -17 -12 -18 -16 -6 -16 14 0 14 -4 -1 -45 -17
-50 -28 -57 -33 -23 -3 19 -35 48 -87 78 -12 6 -10 15 8 54 24 49 43 57 77 31z
m-896 -115 c0 -5 -7 -10 -15 -10 -8 0 -15 5 -15 10 0 6 7 10 15 10 8 0 15 -4
15 -10z m170 -35 c0 -24 -5 -35 -15 -35 -17 0 -20 23 -5 51 15 27 20 24 20
-16z m17 13 c-3 -8 -6 -5 -6 6 -1 11 2 17 5 13 3 -3 4 -12 1 -19z m446 -75
c-7 -2 -21 -2 -30 0 -10 3 -4 5 12 5 17 0 24 -2 18 -5z m282 -53 c-9 -41 -17
-33 -9 9 4 17 9 30 11 27 3 -2 2 -19 -2 -36z m-57 -25 c-3 -3 -9 2 -12 12 -6
14 -5 15 5 6 7 -7 10 -15 7 -18z m71 -194 c16 -56 8 -63 -13 -11 -10 27 -16
67 -15 118 l2 77 7 -70 c4 -38 12 -90 19 -114z m-72 132 c-3 -10 -5 -4 -5 12
0 17 2 24 5 18 2 -7 2 -21 0 -30z m-7 -73 c-9 -6 -9 -13 -1 -29 7 -11 8 -21 2
-21 -5 0 -12 12 -15 28 -4 15 -9 35 -12 45 -3 9 -1 17 5 17 5 0 12 -8 14 -17
3 -13 5 -11 7 7 l3 25 4 -24 c3 -13 -1 -27 -7 -31z m1694 -141 c15 -22 29 -48
31 -57 2 -10 6 -25 10 -34 5 -12 2 -16 -12 -14 -9 2 -32 0 -49 -4 -34 -8 -44
4 -44 57 0 18 29 93 36 93 1 0 14 -18 28 -41z m-1604 -84 c0 -8 -7 -15 -16
-15 -14 0 -14 3 -4 15 7 8 14 15 16 15 2 0 4 -7 4 -15z m-1853 -47 c-3 -7 -5
-2 -5 12 0 14 2 19 5 13 2 -7 2 -19 0 -25z m1813 23 c0 -5 -10 -11 -22 -14
-22 -6 -22 -6 -4 8 23 17 26 18 26 6z m-208 -26 c6 -27 -1 -32 -20 -13 -16 16
-15 38 2 38 7 0 16 -11 18 -25z m-843 -53 c0 -35 -3 -42 -9 -27 -12 28 -12 88
0 80 6 -3 10 -27 9 -53z m1059 -52 c1 -35 -2 -60 -8 -60 -5 0 -10 -9 -10 -20
0 -11 -4 -20 -10 -20 -5 0 -10 5 -10 10 0 7 -7 7 -21 0 -11 -6 -25 -10 -31 -8
-6 2 -30 -16 -52 -41 -23 -26 -45 -49 -50 -52 -5 -4 -6 -11 -3 -15 7 -12 -13
-28 -38 -32 -11 -2 -21 -8 -23 -13 -2 -5 -8 -9 -14 -9 -6 0 -8 7 -4 15 4 11
-2 15 -28 15 -29 0 -33 -3 -33 -25 0 -14 6 -25 16 -27 11 -3 5 -8 -16 -18 -33
-15 -44 -30 -21 -30 6 0 1 -8 -10 -19 -12 -10 -22 -25 -21 -32 0 -10 2 -11 6
-1 2 6 8 12 12 12 10 0 10 -33 1 -40 -4 -3 2 -14 13 -25 17 -17 19 -17 14 -2
-4 9 -2 17 3 17 6 0 10 -4 10 -9 0 -5 9 -11 21 -14 17 -5 19 -9 10 -26 -15
-28 -14 -41 5 -41 12 0 15 6 10 25 -8 31 6 32 45 4 l29 -21 46 27 c24 14 53
28 64 30 45 9 177 6 203 -4 15 -6 39 -14 53 -17 22 -6 24 -10 18 -38 -3 -17
-7 -32 -8 -33 -2 -3 -124 -35 -237 -63 -63 -16 -126 -33 -140 -39 -13 -5 -57
-19 -96 -31 -40 -13 -73 -24 -73 -25 0 -5 82 6 142 20 l58 12 -4 -23 c-3 -13
0 -24 5 -24 5 0 9 -4 9 -10 0 -23 -44 -50 -124 -76 -47 -15 -86 -31 -86 -35 0
-5 -10 -9 -22 -9 -19 0 -20 -2 -8 -10 12 -8 11 -10 -6 -10 -11 0 -24 -4 -30
-9 -15 -14 -186 -64 -238 -69 -55 -5 -58 11 -5 22 18 3 29 9 26 12 -3 4 -20 1
-38 -5 -56 -19 -68 -15 -66 24 3 35 37 85 59 85 7 0 22 7 33 16 19 14 17 15
-20 9 -40 -7 -40 -6 -77 51 -20 32 -34 62 -31 67 7 11 70 39 98 43 71 11 145
33 145 44 0 24 23 192 37 263 19 104 20 105 195 199 206 111 313 167 318 167
3 1 6 -26 8 -59z m1522 -18 c0 -15 -5 -33 -10 -38 -6 -6 -12 -25 -15 -42 -2
-18 -12 -44 -23 -59 -11 -16 -23 -38 -26 -50 -8 -24 -5 -26 60 -26 34 0 34 5
12 -87 -19 -83 -18 -81 -46 -78 -26 3 -27 7 -34 76 -4 40 -12 81 -17 90 -7 14
-3 33 15 73 18 39 24 63 19 86 -5 27 -1 38 19 58 33 32 46 32 46 -3z m-3354
-274 c-20 -704 -23 -777 -36 -813 -10 -29 -7 289 5 490 2 44 7 161 10 260 3
99 7 191 10 205 2 14 4 40 4 58 1 17 4 32 7 32 4 0 4 -105 0 -232z m151 195
c-3 -10 -5 -4 -5 12 0 17 2 24 5 18 2 -7 2 -21 0 -30z m-10 -448 l-13 -80 -7
110 c-7 107 7 347 21 369 13 20 12 -317 -1 -399z m3518 228 c29 -64 32 -108 9
-117 -28 -11 -62 -6 -78 10 -17 16 -21 85 -10 141 5 25 10 29 30 25 17 -3 30
-19 49 -59z m495 33 l115 -12 -47 -14 c-27 -8 -48 -20 -48 -27 0 -22 -50 -36
-135 -39 -44 -1 -104 -6 -133 -11 -66 -13 -79 0 -73 77 l3 52 102 -7 c55 -4
153 -13 216 -19z m533 -42 c89 -6 111 -17 56 -29 -18 -4 -34 -16 -39 -30 -11
-29 -36 -38 -63 -23 -12 6 -35 11 -52 10 -36 -3 -87 17 -82 32 2 6 -10 21 -27
34 l-31 23 75 -5 c41 -3 114 -8 163 -12z m-2383 -286 c0 -18 -2 -20 -9 -8 -6
8 -7 18 -5 22 9 14 14 9 14 -14z m-150 -133 c-12 -19 -25 -35 -28 -35 -4 0
-31 -22 -59 -49 -52 -49 -93 -81 -103 -81 -3 0 -7 13 -8 29 -2 22 6 36 35 61
21 18 56 48 78 67 45 39 98 66 103 52 2 -5 -6 -25 -18 -44z m-2023 -197 c-1
-62 -7 -102 -14 -110 -7 -6 -13 -20 -13 -30 0 -10 -5 -18 -12 -18 -14 0 -5
235 14 336 l12 69 8 -75 c4 -41 6 -119 5 -172z m641 80 c15 -97 14 -97 -12
-129 l-26 -31 0 61 c0 61 13 111 28 111 5 0 9 -6 10 -12z m4658 -42 c6 -16
-14 -61 -23 -52 -3 3 -19 -6 -35 -19 -31 -26 -58 -33 -58 -14 0 37 56 82 71
58 6 -11 9 -9 9 7 0 34 25 48 36 20z m-3545 -146 c-29 -56 -86 -144 -131 -200
l-20 -25 0 35 c0 26 16 61 63 135 34 55 73 115 87 134 l25 33 3 -26 c2 -15
-10 -52 -27 -86z m3407 54 c-3 -19 -34 -41 -43 -32 -4 3 -2 16 5 27 13 25 43
28 38 5z m-3158 -14 c0 -5 -2 -10 -4 -10 -3 0 -8 5 -11 10 -3 6 -1 10 4 10 6
0 11 -4 11 -10z m-21 -41 c-13 -9 -37 -29 -54 -43 -36 -31 -42 -32 -50 -6 -8
24 1 40 21 40 8 0 14 4 14 10 0 12 60 29 79 22 10 -4 7 -10 -10 -23z m-1067
-15 c17 -9 49 -21 71 -28 38 -11 41 -15 58 -73 l17 -61 -62 -11 c-33 -5 -112
-15 -175 -22 l-114 -13 -23 30 c-12 16 -26 32 -31 36 -4 4 -20 18 -34 30 -14
13 -33 37 -42 55 -20 38 -18 39 98 58 115 19 200 18 237 -1z m4438 -103 c5
-11 10 -26 9 -33 0 -9 -2 -8 -6 2 -3 8 -12 23 -21 33 -9 10 -11 17 -4 17 6 0
16 -9 22 -19z m-3560 -17 c0 -9 -14 -41 -30 -71 -17 -31 -32 -72 -34 -93 -2
-21 -21 -70 -42 -109 l-39 -70 24 -44 c22 -40 23 -52 18 -118 -8 -87 -16 -119
-29 -119 -6 0 -8 25 -6 58 2 45 0 57 -12 57 -14 0 -16 -8 -19 -72 -1 -12 -10
-24 -21 -28 -26 -8 -37 -56 -39 -172 -1 -60 2 -93 8 -93 6 0 11 9 11 20 0 11
7 23 15 26 8 4 15 10 15 16 0 5 -4 6 -10 3 -13 -8 -34 39 -27 59 20 51 47 -15
48 -113 0 -85 -6 -111 -28 -111 -9 0 -13 -6 -9 -15 3 -8 1 -15 -4 -15 -6 0
-10 12 -10 28 0 21 -2 24 -10 12 -12 -18 -11 -26 -13 102 -1 58 -5 110 -9 114
-10 10 -10 15 -17 -171 -5 -139 -8 -160 -23 -163 -24 -5 -32 61 -26 223 4 95
9 141 20 157 9 14 20 75 27 162 7 77 18 156 24 175 11 31 16 36 40 33 28 -4
39 20 15 34 -8 5 -9 2 -5 -9 4 -11 1 -17 -8 -17 -21 0 -18 25 5 41 10 8 21 25
24 39 7 42 19 63 90 163 68 96 86 112 86 81z m-1720 -24 c0 -12 -8 -35 -17
-53 -9 -18 -16 -38 -15 -44 5 -25 -19 -52 -56 -63 -50 -14 -573 -118 -757
-151 -117 -21 -369 -57 -460 -65 -33 -3 -120 -11 -194 -19 -111 -10 -144 -10
-190 1 -31 7 -91 13 -134 14 -81 0 -154 21 -142 40 4 6 2 16 -3 23 -5 7 -12
21 -15 32 -4 18 -5 17 -6 -3 0 -13 -5 -20 -11 -17 -6 4 -2 22 10 46 12 22 18
44 15 49 -4 7 92 60 110 60 4 0 13 -7 22 -15 13 -14 17 -14 32 -2 17 16 56 25
246 58 147 26 172 28 550 43 61 2 173 11 250 19 77 9 187 19 245 23 58 3 166
14 240 24 74 10 168 18 208 19 66 1 72 -1 72 -19z m-2130 -195 c0 -8 4 -15 10
-15 5 0 7 7 4 15 -7 17 22 20 46 5 13 -9 13 -10 0 -10 -12 0 -12 -2 -2 -8 18
-12 26 -72 13 -104 -8 -22 -17 -28 -42 -28 -24 0 -30 4 -25 15 4 10 -2 19 -17
24 -42 16 -48 33 -30 79 16 41 43 58 43 27z m4293 -133 c24 -26 56 -139 56
-197 0 -28 6 -71 14 -95 10 -30 15 -86 14 -168 0 -78 4 -126 10 -130 6 -4 13
-29 14 -55 4 -62 -7 -71 -150 -132 -142 -61 -171 -83 -171 -135 0 -22 -8 -47
-20 -63 -11 -14 -20 -30 -20 -35 0 -5 -7 -12 -15 -16 -8 -3 -15 -17 -15 -31 0
-14 -6 -25 -12 -26 -7 0 -4 -4 7 -9 19 -9 19 -9 -2 -16 -13 -3 -23 -13 -23
-21 0 -9 -6 -13 -15 -9 -16 6 -41 -29 -26 -38 9 -6 68 11 86 24 6 4 27 13 48
20 22 7 51 18 65 26 35 18 52 18 52 -1 0 -8 -21 -25 -47 -37 -121 -56 -211
-118 -173 -118 6 0 10 4 10 9 0 5 10 11 23 14 12 3 43 13 69 23 26 10 51 15
55 10 4 -5 2 -11 -5 -13 -7 -3 -19 -11 -26 -19 -8 -8 -19 -14 -25 -14 -6 0
-11 -3 -11 -8 0 -4 -9 -12 -19 -17 -11 -6 -35 -18 -55 -29 -20 -10 -36 -25
-36 -33 0 -8 6 -13 13 -10 71 31 213 85 216 82 5 -6 -41 -44 -54 -45 -5 0 -37
-17 -70 -38 -33 -21 -68 -41 -77 -45 -10 -3 -18 -14 -18 -23 0 -11 5 -14 18
-9 14 6 112 35 120 35 1 0 2 -4 2 -10 0 -5 -8 -10 -19 -10 -10 0 -25 -7 -32
-17 -8 -9 -29 -22 -47 -30 -44 -18 -36 -39 14 -35 21 2 71 4 109 5 64 2 70 0
70 -18 0 -12 -8 -21 -20 -23 -11 -2 -25 -9 -30 -17 -6 -7 -33 -24 -61 -39 -74
-38 -124 -101 -101 -126 7 -7 7 -10 1 -7 -6 3 -28 0 -50 -8 -59 -21 -89 -18
-122 13 -41 37 -50 84 -22 110 l22 20 -46 47 c-25 25 -46 55 -46 66 0 10 -4
19 -9 19 -5 0 -15 17 -22 38 -7 20 -20 51 -30 68 -18 33 -30 84 -54 238 -11
69 -20 103 -33 112 -16 11 -17 7 -23 -49 -9 -95 -13 -58 -13 125 l-1 167 25 3
c21 3 26 10 33 53 15 91 25 69 21 -47 l-4 -113 19 63 c11 35 33 83 49 107 16
24 39 73 51 107 28 80 133 293 185 372 50 78 157 183 196 191 18 4 27 11 24
17 -4 6 -3 9 2 6 5 -3 18 -2 29 3 38 15 111 10 128 -9z m-943 4 c0 -3 -4 -8
-10 -11 -5 -3 -10 -1 -10 4 0 6 5 11 10 11 6 0 10 -2 10 -4z m203 -21 c-7 -21
-13 -19 -13 6 0 11 4 18 10 14 5 -3 7 -12 3 -20z m387 -111 c0 -3 -9 -17 -19
-30 -12 -16 -22 -21 -26 -14 -4 6 1 20 11 31 17 18 34 25 34 13z m-3285 -339
c0 -68 -1 -70 -25 -70 -23 0 -25 3 -23 49 2 72 11 98 31 94 14 -3 17 -15 17
-73z m-642 -51 c9 -10 -4 -34 -19 -34 -8 0 -14 9 -14 20 0 19 19 27 33 14z
m4277 -314 c-20 -13 -43 -13 -35 0 3 6 16 10 28 10 18 0 19 -2 7 -10z m4316
-975 c8 -11 14 -32 14 -47 0 -16 5 -28 11 -28 11 0 39 -60 39 -85 0 -8 -4 -15
-10 -15 -5 0 -10 7 -10 15 0 18 -18 51 -42 80 -10 12 -19 45 -22 80 -3 33 -3
51 1 40 3 -11 12 -29 19 -40z"/>
<path d="M6985 4573 c-4 -16 -10 -36 -16 -45 -5 -10 -9 -37 -9 -60 1 -40 2
-42 15 -24 8 11 15 31 15 44 0 13 7 30 15 38 13 14 15 14 15 0 0 -19 23 -21
38 -3 12 14 -11 47 -46 66 -19 10 -22 9 -27 -16z"/>
<path d="M7126 4525 c4 -8 12 -15 20 -15 20 0 17 7 -6 20 -16 9 -18 8 -14 -5z"/>
<path d="M7015 4470 c-8 -35 3 -110 15 -110 18 0 29 68 17 105 -13 43 -23 45
-32 5z"/>
<path d="M6751 4218 c1 -7 4 -24 8 -38 l7 -25 13 23 c10 18 10 26 0 38 -14 17
-29 18 -28 2z"/>
<path d="M6875 4154 c-8 -20 -15 -38 -15 -40 0 -4 15 -21 57 -66 35 -38 68 42
37 90 -41 63 -58 66 -79 16z"/>
<path d="M7205 4070 c-3 -6 1 -7 9 -4 18 7 21 14 7 14 -6 0 -13 -4 -16 -10z"/>
<path d="M7028 3253 c7 -3 16 -2 19 1 4 3 -2 6 -13 5 -11 0 -14 -3 -6 -6z"/>
<path d="M6978 3243 c6 -2 18 -2 25 0 6 3 1 5 -13 5 -14 0 -19 -2 -12 -5z"/>
<path d="M7545 2590 c3 -5 8 -10 11 -10 2 0 4 5 4 10 0 6 -5 10 -11 10 -5 0
-7 -4 -4 -10z"/>
<path d="M7419 1815 c-7 -45 -4 -162 4 -172 19 -25 25 -1 20 75 -5 67 -19 127
-24 97z"/>
<path d="M11618 2573 c-19 -67 -52 -242 -47 -248 4 -3 287 -28 454 -40 44 -3
123 -10 175 -15 146 -14 334 -29 455 -36 61 -3 118 -8 128 -10 16 -5 17 7 17
164 l0 169 -177 12 c-362 24 -473 30 -693 41 -124 6 -241 13 -260 16 l-35 6
-17 -59z"/>
<path d="M11682 1975 c-13 -15 -17 -25 -9 -25 12 0 42 39 34 46 -2 2 -13 -7
-25 -21z"/>
<path d="M11819 1890 c9 -19 31 -57 49 -84 18 -28 32 -53 32 -57 0 -4 13 -21
29 -38 16 -17 32 -45 36 -61 4 -17 11 -30 15 -30 5 0 21 -20 35 -44 l26 -44
112 -11 c125 -13 438 -39 565 -48 l82 -6 0 195 0 195 -117 11 c-65 6 -161 14
-213 18 -52 4 -97 8 -100 9 -3 2 -86 6 -185 10 -99 4 -225 10 -281 14 l-101 6
16 -35z"/>
</g>
</svg>
